<?xml version="1.0" encoding="UTF-8"?>
<svg version="1.1" xmlns="http://www.w3.org/2000/svg" width="290" height="291">
<path d="M0 0 C95.7 0 191.4 0 290 0 C290 96.03 290 192.06 290 291 C194.3 291 98.6 291 0 291 C0 194.97 0 98.94 0 0 Z " fill="#0D195E" transform="translate(0,0)"/>
<path d="M0 0 C95.7 0 191.4 0 290 0 C290 96.03 290 192.06 290 291 C194.3 291 98.6 291 0 291 C0 194.97 0 98.94 0 0 Z M41.3125 57.8125 C15.96430305 86.87471849 5.42485272 123.86501004 8 162 C8.57232271 167.78056359 9.62815129 173.36017752 11 179 C11.2165625 179.9590625 11.433125 180.918125 11.65625 181.90625 C20.51975076 217.7823245 43.60287503 247.86786804 75 267 C106.49331034 285.79624103 143.44688821 291.15760938 179.1875 282.609375 C216.12151501 272.84998958 246.536546 248.60483717 266 216 C268.70380131 211.15156049 270.93056655 206.14633675 273 201 C273.39759521 200.03707031 273.39759521 200.03707031 273.80322266 199.0546875 C284.79327121 172.02671999 286.86254432 141.13771647 279 113 C278.69449219 111.87126465 278.69449219 111.87126465 278.3828125 110.71972656 C269.01566366 77.05292153 245.95326163 47.78064165 216 30 C210.79024396 27.06871534 205.43589459 24.48124918 200 22 C199.39220703 21.71640625 198.78441406 21.4328125 198.15820312 21.140625 C187.44646228 16.20926982 176.56151905 13.95561206 165 12 C164.03884277 11.8249292 163.07768555 11.6498584 162.08740234 11.46948242 C115.95425287 4.45429608 72.37351022 24.95322077 41.3125 57.8125 Z " fill="#0D195E" transform="translate(0,0)"/>
<path d="M0 0 C3.86862728 3.09490182 7.58336556 6.33858328 11.26025391 9.65820312 C11.99888672 10.32464844 12.73751953 10.99109375 13.49853516 11.67773438 C30.72294207 28.0737129 43.10965687 50.86665067 49.26025391 73.65820312 C49.56382812 74.72941406 49.56382812 74.72941406 49.87353516 75.82226562 C57.46337968 103.98000942 54.39040297 134.90623176 43.26025391 161.65820312 C42.83534668 162.69920166 42.83534668 162.69920166 42.40185547 163.76123047 C35.24544964 180.98800405 24.44083004 195.55159725 11.26025391 208.65820312 C10.45201172 209.46644531 9.64376953 210.2746875 8.81103516 211.10742188 C-17.16357326 235.70816671 -52.56961242 247.55277202 -87.91113281 247.25195312 C-127.59467451 246.06372784 -161.51435969 228.31670401 -188.42724609 199.84570312 C-205.92959804 179.778904 -216.18336535 155.65928889 -220.73974609 129.65820312 C-220.93181641 128.58441406 -221.12388672 127.510625 -221.32177734 126.40429688 C-225.41708779 89.69959862 -215.87244529 53.45216954 -193.10058594 24.33447266 C-145.76344742 -33.97496277 -60.35291095 -46.5477966 0 0 Z M-157.73974609 23.65820312 C-158.55701172 24.33238281 -159.37427734 25.0065625 -160.21630859 25.70117188 C-180.54255844 42.97533776 -193.89504819 70.2626889 -196.73974609 96.65820312 C-198.28533409 128.33667214 -191.00586743 156.91955845 -170.73974609 181.65820312 C-170.05396484 182.50898438 -169.36818359 183.35976562 -168.66162109 184.23632812 C-151.08090329 204.94250688 -123.66357325 218.78042509 -96.73974609 221.65820312 C-64.80213512 223.16101031 -35.23904421 216.09508898 -10.73974609 194.65820312 C-10.00755859 194.06910156 -9.27537109 193.48 -8.52099609 192.87304688 C9.6915692 177.77072601 21.72426943 154.63852184 26.26025391 131.65820312 C26.56769531 130.13259766 26.56769531 130.13259766 26.88134766 128.57617188 C29.60190533 112.75941243 29.53826994 96.15951629 25.26025391 80.65820312 C24.93154297 79.45292969 24.60283203 78.24765625 24.26416016 77.00585938 C19.72612609 62.04133873 12.19318969 48.69542333 2.26025391 36.65820312 C1.61443359 35.86027344 0.96861328 35.06234375 0.30322266 34.24023438 C-15.05374557 16.06834326 -38.34815191 2.91995933 -61.73974609 -1.34179688 C-62.76326172 -1.54417969 -63.78677734 -1.7465625 -64.84130859 -1.95507812 C-98.15831205 -7.68997216 -132.24796932 1.25502046 -157.73974609 23.65820312 Z " fill="#222D6C" transform="translate(229.73974609375,39.341796875)"/>
<path d="M0 0 C36.01536105 -1.60068271 69.70587973 14.26077401 96 38 C96.73863281 38.66644531 97.47726563 39.33289062 98.23828125 40.01953125 C115.46268817 56.41550978 127.84940297 79.20844755 134 102 C134.20238281 102.71414062 134.40476562 103.42828125 134.61328125 104.1640625 C144.07549734 139.2681619 136.64496708 174.61114076 120 206 C115.02642312 204.2657267 110.68501047 201.56672043 106.1875 198.875 C105.39923828 198.40707031 104.61097656 197.93914062 103.79882812 197.45703125 C101.86397546 196.30784603 99.93112772 195.15542997 98 194 C99.1602422 191.05032952 100.36897549 188.1263611 101.62109375 185.21484375 C105.15715035 176.93371476 108.31091366 168.88554576 110 160 C110.20367187 158.98550781 110.40734375 157.97101563 110.6171875 156.92578125 C113.34959867 141.11148374 113.27753481 124.49956947 109 109 C108.67128906 107.79472656 108.34257812 106.58945313 108.00390625 105.34765625 C103.45946547 90.36200899 95.91083605 77.07653726 86 65 C85.42765625 64.27554688 84.8553125 63.55109375 84.265625 62.8046875 C62.93344002 36.90132002 31.69354961 28.86956129 0 25 C0 16.75 0 8.5 0 0 Z " fill="#FBFBFC" transform="translate(145,11)"/>
<path d="M0 0 C0 19.14 0 38.28 0 58 C-4.29 58 -8.58 58 -13 58 C-13.33 43.81 -13.66 29.62 -14 15 C-17.96 18.465 -17.96 18.465 -22 22 C-25.76687864 20.11656068 -26.79421646 19.30867531 -29 16 C-26.95527778 11.42189532 -23.91354251 8.91722154 -20.125 5.75 C-19.51914063 5.19570312 -18.91328125 4.64140625 -18.2890625 4.0703125 C-11.76195996 -1.36002281 -9.76316116 0 0 0 Z " fill="#F6F6F9" transform="translate(118,122)"/>
<path d="M0 0 C3.3131499 2.03131812 5.63440675 3.78144239 7.4375 7.3125 C8.25870241 11.9587768 8.57297963 16.30850303 6.19140625 20.51171875 C3.82162608 23.33063431 1.51244184 25.26253877 -1.5625 27.3125 C-1.01980469 27.54324219 -0.47710937 27.77398437 0.08203125 28.01171875 C3.3601376 29.50606273 5.95040637 30.79496302 8.4375 33.4375 C9.94565096 37.77343401 10.09276129 41.77663572 9.4375 46.3125 C6.68277255 51.8219549 3.09749422 55.40745319 -2.765625 57.40234375 C-11.7831113 59.56394283 -21.18323195 59.41663129 -29.5625 55.3125 C-29.5625 53.0025 -29.5625 50.6925 -29.5625 48.3125 C-28.89605469 48.5290625 -28.22960937 48.745625 -27.54296875 48.96875 C-19.60981501 51.3653391 -11.93876941 53.00158644 -4 49.9375 C-1.51551384 48.39625793 -1.51551384 48.39625793 0.4375 46.3125 C0.794648 43.97845946 0.794648 43.97845946 0.75 41.375 C0.76675781 40.49972656 0.78351563 39.62445313 0.80078125 38.72265625 C0.62191107 36.2867334 0.62191107 36.2867334 -0.82421875 34.56640625 C-6.07163389 30.78119218 -14.32587436 30.90646435 -20.5625 30.3125 C-20.5625 28.3325 -20.5625 26.3525 -20.5625 24.3125 C-19.24185547 24.23902344 -19.24185547 24.23902344 -17.89453125 24.1640625 C-16.73308594 24.08929688 -15.57164062 24.01453125 -14.375 23.9375 C-13.22644531 23.86789063 -12.07789063 23.79828125 -10.89453125 23.7265625 C-7.71866244 23.33190588 -5.37585298 22.82461293 -2.5625 21.3125 C-1.11775951 16.97827852 -0.90738884 12.83733758 -1.5625 8.3125 C-4.29573683 5.40843587 -6.26025707 5.34897759 -10.1875 4.875 C-15.64105859 5.05260631 -20.57609805 7.25927567 -25.5625 9.3125 C-27.0625 8 -27.0625 8 -28.5625 6.3125 C-28.5625 5.3225 -28.5625 4.3325 -28.5625 3.3125 C-19.56449445 -1.73648107 -9.87375802 -4.47806126 0 0 Z " fill="#EFF0F4" transform="translate(192.5625,122.6875)"/>
<path d="M0 0 C1.134375 0.020625 2.26875 0.04125 3.4375 0.0625 C2.21183925 4.05437532 0.97896857 8.04377125 -0.2734375 12.02734375 C-0.48532715 12.70144287 -0.6972168 13.37554199 -0.91552734 14.07006836 C-2.38028703 18.58097544 -4.1099958 22.95432645 -5.90234375 27.34375 C-6.41479636 28.60386848 -6.92648625 29.86429734 -7.4375 31.125 C-7.69619873 31.7629248 -7.95489746 32.40084961 -8.22143555 33.05810547 C-10.57140524 38.93120576 -12.55972468 44.89381324 -14.484375 50.91796875 C-15.35313754 53.45185951 -16.2830007 55.71868992 -17.5625 58.0625 C-19.8725 58.0625 -22.1825 58.0625 -24.5625 58.0625 C-23.07783785 50.24717174 -20.5014903 43.05377032 -17.6875 35.625 C-17.25308594 34.46162109 -16.81867188 33.29824219 -16.37109375 32.09960938 C-14.12301424 26.10135517 -11.80822449 20.13567559 -9.41113281 14.19555664 C-7.96938994 10.57170524 -6.68935358 6.89296455 -5.39453125 3.21484375 C-4.04143117 -0.28542922 -4.073808 0.07147032 0 0 Z " fill="#ECEDF2" transform="translate(155.5625,121.9375)"/>
</svg>
