<svg version="1.1" id="Layer_1" xmlns="http://www.w3.org/2000/svg" xmlns:xlink="http://www.w3.org/1999/xlink" x="0px" y="0px"
	 width="100%" viewBox="0 0 290 290" enable-background="new 0 0 290 290" xml:space="preserve">
<path fill="#0E1A5E" opacity="1.000000" stroke="none" 
	d="
M1.000000,109.000000 
	C1.000000,72.666679 1.000000,36.833363 1.000000,1.000034 
	C97.666618,1.000022 194.333237,1.000022 290.999878,1.000011 
	C290.999939,97.666573 290.999939,194.333145 290.999969,290.999817 
	C194.333466,290.999878 97.666939,290.999878 1.000204,290.999939 
	C1.000000,230.500000 1.000000,170.000000 1.000000,109.000000 
M144.471527,9.101404 
	C136.062469,9.880713 127.492554,9.880757 119.272896,11.577559 
	C87.824997,18.069418 61.346016,33.168213 40.444130,57.929974 
	C20.742682,81.269615 10.387350,108.301086 8.141144,138.424530 
	C6.664471,158.227905 10.086683,177.575378 17.305700,196.073456 
	C19.868320,202.639938 23.720909,208.702988 26.948925,215.721436 
	C27.383007,216.612732 27.749371,217.545044 28.260860,218.389450 
	C57.487041,266.639038 115.505829,293.076477 170.687546,281.552124 
	C227.108917,269.768799 264.686340,235.527969 278.538147,179.532669 
	C292.549927,122.890373 274.880646,74.887115 229.674149,38.007843 
	C205.444595,18.241478 176.901596,8.924170 144.471527,9.101404 
z"/>
<path fill="#FDFDFD" opacity="1.000000" stroke="none" 
	d="
M145.445984,9.195578 
	C176.901596,8.924170 205.444595,18.241478 229.674149,38.007843 
	C274.880646,74.887115 292.549927,122.890373 278.538147,179.532669 
	C264.686340,235.527969 227.108917,269.768799 170.687546,281.552124 
	C115.505829,293.076477 57.487041,266.639038 28.260860,218.389450 
	C27.749371,217.545044 27.383007,216.612732 27.308620,215.287582 
	C34.135296,210.980423 40.602280,207.107117 47.404770,203.264175 
	C48.556610,204.282288 49.488693,205.196228 50.172558,206.268478 
	C75.191505,245.496674 119.635666,265.797546 165.433533,256.920166 
	C212.310715,247.833618 242.512497,219.106537 254.637604,173.050186 
	C266.126404,129.410889 248.676788,82.922104 212.889343,56.421707 
	C192.821091,41.561295 170.207825,34.457268 145.441650,33.327850 
	C145.464661,24.981340 145.455322,17.088459 145.445984,9.195578 
z"/>
<path fill="#232E6D" opacity="1.000000" stroke="none" 
	d="
M47.069260,203.233826 
	C40.602280,207.107117 34.135296,210.980423 27.326469,214.924805 
	C23.720909,208.702988 19.868320,202.639938 17.305700,196.073456 
	C10.086683,177.575378 6.664471,158.227905 8.141144,138.424530 
	C10.387350,108.301086 20.742682,81.269615 40.444130,57.929974 
	C61.346016,33.168213 87.824997,18.069418 119.272896,11.577559 
	C127.492554,9.880757 136.062469,9.880713 144.958755,9.148491 
	C145.455322,17.088459 145.464661,24.981340 144.957581,33.381172 
	C140.310501,34.232491 136.163040,34.439751 132.051834,34.942989 
	C99.994484,38.867004 73.929901,53.687836 55.063698,79.739029 
	C31.819645,111.835342 26.731098,147.133301 39.805008,184.752274 
	C41.976231,190.999741 44.635513,197.077576 47.069260,203.233826 
z"/>
<path fill="#0E1A5F" opacity="1.000000" stroke="none" 
	d="
M47.404770,203.264160 
	C44.635513,197.077576 41.976231,190.999741 39.805008,184.752274 
	C26.731098,147.133301 31.819645,111.835342 55.063698,79.739029 
	C73.929901,53.687836 99.994484,38.867004 132.051834,34.942989 
	C136.163040,34.439751 140.310501,34.232491 144.925247,33.834801 
	C170.207825,34.457268 192.821091,41.561295 212.889343,56.421707 
	C248.676788,82.922104 266.126404,129.410889 254.637604,173.050186 
	C242.512497,219.106537 212.310715,247.833618 165.433533,256.920166 
	C119.635666,265.797546 75.191505,245.496674 50.172558,206.268478 
	C49.488693,205.196228 48.556610,204.282288 47.404770,203.264160 
M89.775085,166.356796 
	C85.520782,169.323120 86.708412,173.560867 86.933136,177.599884 
	C100.676170,177.599884 114.205185,177.599884 127.693832,177.599884 
	C127.693832,174.202591 127.693832,171.218338 127.693832,167.694855 
	C123.596519,167.694855 119.634575,167.694855 115.672630,167.694855 
	C111.685333,167.694855 107.698044,167.694855 103.710747,167.694855 
	C106.732018,163.389755 110.185760,160.521423 113.143547,157.210083 
	C117.109215,152.770401 121.494026,148.418594 124.261765,143.258255 
	C129.203186,134.045166 125.174858,123.997795 116.082298,120.456749 
	C106.355789,116.668808 94.064224,119.738968 86.933533,127.844765 
	C89.038383,130.346741 91.159096,132.867569 92.609261,134.591354 
	C97.797615,132.808289 102.150299,130.651627 106.729713,129.926163 
	C111.229797,129.213242 113.944382,132.026291 113.100388,136.544052 
	C112.408211,140.249191 110.642509,144.186691 108.207558,147.046021 
	C102.603470,153.626801 96.302124,159.613800 89.775085,166.356796 
M199.927963,133.535156 
	C200.119186,127.753952 197.419418,123.641327 192.414001,121.063477 
	C184.180618,116.823174 170.944839,118.936844 163.927261,125.624634 
	C165.001389,126.996826 166.088531,128.385635 166.346268,128.714905 
	C172.627640,127.349632 177.972916,125.694649 183.427246,125.167076 
	C187.391129,124.783661 190.958939,126.824097 192.162186,131.140808 
	C193.382065,135.517105 192.548843,139.666626 188.593155,142.175385 
	C186.189529,143.699799 183.141846,144.434158 180.280273,144.943390 
	C177.755615,145.392639 175.087799,145.037415 172.515274,145.037415 
	C172.515274,147.421570 172.515274,149.130844 172.515274,150.514313 
	C177.520935,151.103333 182.197983,151.307602 186.707047,152.285950 
	C190.847870,153.184387 193.874847,155.745590 194.184326,160.476654 
	C194.492096,165.181900 193.128983,169.175201 188.669144,171.262756 
	C186.486679,172.284332 183.850937,173.070816 181.510162,172.877319 
	C175.522247,172.382385 169.584702,171.278214 163.554413,170.407211 
	C162.006165,174.687515 164.108063,177.124451 168.459671,177.657135 
	C173.707458,178.299530 179.060928,179.147141 184.278976,178.744293 
	C195.610306,177.869507 202.195786,170.800705 201.862579,161.013443 
	C201.600647,153.319244 196.595779,149.806213 189.508484,147.605164 
	C195.953125,144.972549 199.924347,141.157364 199.927963,133.535156 
M140.588928,170.225708 
	C146.715118,153.634766 152.841324,137.043808 158.931793,120.549606 
	C153.515106,118.738747 151.511169,120.863327 149.878906,125.505470 
	C143.756119,142.918686 137.118988,160.151077 130.646988,177.525482 
	C137.510757,178.514160 137.510757,178.514160 140.588928,170.225708 
z"/>
<path fill="#F9F9FB" opacity="1.000000" stroke="none" 
	d="
M90.029404,166.099274 
	C96.302124,159.613800 102.603470,153.626801 108.207558,147.046021 
	C110.642509,144.186691 112.408211,140.249191 113.100388,136.544052 
	C113.944382,132.026291 111.229797,129.213242 106.729713,129.926163 
	C102.150299,130.651627 97.797615,132.808289 92.609261,134.591354 
	C91.159096,132.867569 89.038383,130.346741 86.933533,127.844765 
	C94.064224,119.738968 106.355789,116.668808 116.082298,120.456749 
	C125.174858,123.997795 129.203186,134.045166 124.261765,143.258255 
	C121.494026,148.418594 117.109215,152.770401 113.143547,157.210083 
	C110.185760,160.521423 106.732018,163.389755 103.710747,167.694855 
	C107.698044,167.694855 111.685333,167.694855 115.672630,167.694855 
	C119.634575,167.694855 123.596519,167.694855 127.693832,167.694855 
	C127.693832,171.218338 127.693832,174.202591 127.693832,177.599884 
	C114.205185,177.599884 100.676170,177.599884 86.933136,177.599884 
	C86.708412,173.560867 85.520782,169.323120 90.029404,166.099274 
z"/>
<path fill="#F3F3F7" opacity="1.000000" stroke="none" 
	d="
M199.928009,133.960175 
	C199.924347,141.157364 195.953125,144.972549 189.508484,147.605164 
	C196.595779,149.806213 201.600647,153.319244 201.862579,161.013443 
	C202.195786,170.800705 195.610306,177.869507 184.278976,178.744293 
	C179.060928,179.147141 173.707458,178.299530 168.459671,177.657135 
	C164.108063,177.124451 162.006165,174.687515 163.554413,170.407211 
	C169.584702,171.278214 175.522247,172.382385 181.510162,172.877319 
	C183.850937,173.070816 186.486679,172.284332 188.669144,171.262756 
	C193.128983,169.175201 194.492096,165.181900 194.184326,160.476654 
	C193.874847,155.745590 190.847870,153.184387 186.707047,152.285950 
	C182.197983,151.307602 177.520935,151.103333 172.515274,150.514313 
	C172.515274,149.130844 172.515274,147.421570 172.515274,145.037415 
	C175.087799,145.037415 177.755615,145.392639 180.280273,144.943390 
	C183.141846,144.434158 186.189529,143.699799 188.593155,142.175385 
	C192.548843,139.666626 193.382065,135.517105 192.162186,131.140808 
	C190.958939,126.824097 187.391129,124.783661 183.427246,125.167076 
	C177.972916,125.694649 172.627640,127.349632 166.346268,128.714905 
	C166.088531,128.385635 165.001389,126.996826 163.927261,125.624634 
	C170.944839,118.936844 184.180618,116.823174 192.414001,121.063477 
	C197.419418,123.641327 200.119186,127.753952 199.928009,133.960175 
z"/>
<path fill="#F1F1F5" opacity="1.000000" stroke="none" 
	d="
M140.426971,170.581482 
	C137.510757,178.514160 137.510757,178.514160 130.646988,177.525482 
	C137.118988,160.151077 143.756119,142.918686 149.878906,125.505470 
	C151.511169,120.863327 153.515106,118.738747 158.931793,120.549606 
	C152.841324,137.043808 146.715118,153.634766 140.426971,170.581482 
z"/>
</svg>