<?xml version="1.0" standalone="no"?>
<!DOCTYPE svg PUBLIC "-//W3C//DTD SVG 20010904//EN"
 "http://www.w3.org/TR/2001/REC-SVG-20010904/DTD/svg10.dtd">
<svg version="1.0" xmlns="http://www.w3.org/2000/svg"
 width="157.000000pt" height="156.000000pt" viewBox="0 0 157.000000 156.000000"
 preserveAspectRatio="xMidYMid meet">

<g transform="translate(0.000000,156.000000) scale(0.100000,-0.100000)"
fill="#242E81" stroke="none">
<path d="M725 1548 c-11 -6 -63 -49 -116 -95 l-97 -83 -89 0 c-118 0 -123 -5
-123 -127 l0 -90 -145 -142 -145 -142 0 -400 c0 -268 4 -407 11 -421 26 -48
32 -48 764 -48 732 0 738 0 764 48 7 14 11 154 11 422 l0 402 -145 147 -145
147 0 86 c0 112 -7 118 -121 118 l-84 0 -100 86 c-55 47 -110 90 -123 95 -32
12 -93 11 -117 -3z m91 -91 c11 -7 40 -29 64 -49 l44 -38 -132 0 c-73 0 -132
2 -132 4 0 8 113 96 124 96 6 -1 20 -6 32 -13z m364 -526 l0 -339 -44 -36
c-24 -20 -47 -36 -50 -36 -3 0 -55 45 -115 99 -175 159 -206 159 -377 2 l-108
-99 -48 41 -48 42 0 333 0 332 395 0 395 0 0 -339z m233 -129 c-26 -23 -69
-61 -95 -83 l-48 -41 0 178 0 179 95 -95 96 -95 -48 -43z m-1113 52 l0 -166
-47 41 c-27 22 -68 58 -93 79 l-45 40 90 85 c50 48 91 86 93 87 1 0 2 -75 2
-166z m-38 -259 c84 -75 151 -139 148 -142 -7 -10 -272 -256 -293 -272 -16
-13 -17 1 -17 268 0 154 2 281 4 281 3 0 74 -61 158 -135z m1208 -145 c0 -148
-3 -270 -7 -270 -11 0 -298 262 -298 271 0 7 292 269 300 269 3 0 5 -121 5
-270z m-365 -77 l295 -268 -305 -3 c-168 -1 -443 -1 -612 0 l-306 3 287 268
c239 223 292 267 316 267 24 0 81 -46 325 -267z"/>
</g>
</svg>
