<?xml version="1.0" encoding="UTF-8"?>
<svg version="1.1" xmlns="http://www.w3.org/2000/svg" width="230" height="230">
<path d="M0 0 C75.9 0 151.8 0 230 0 C230 75.9 230 151.8 230 230 C154.1 230 78.2 230 0 230 C0 154.1 0 78.2 0 0 Z " fill="#535BA4" transform="translate(0,0)"/>
<path d="M0 0 C0.96674149 -0.00890762 1.93348297 -0.01781525 2.92951965 -0.0269928 C6.10987812 -0.04822042 9.28819824 -0.02599931 12.46850586 -0.0012207 C14.68615424 -0.00272373 16.90380208 -0.00615526 19.1214447 -0.01142883 C23.7625479 -0.01575599 28.40295524 0.00104763 33.04394531 0.03320312 C38.98825189 0.07300625 44.93125556 0.06367201 50.87560368 0.03896809 C55.45249587 0.02477691 60.02908441 0.03487794 64.60595512 0.0524807 C66.79757398 0.05832399 68.98922398 0.05703779 71.18083382 0.04845619 C74.24495506 0.04045253 77.30717473 0.06473736 80.37109375 0.09765625 C81.72485107 0.08483109 81.72485107 0.08483109 83.10595703 0.07174683 C87.41226915 0.15147852 90.25048259 0.41882448 93.66770935 3.17692566 C97.36957429 7.07561673 97.28213687 9.72319619 97.3137207 14.86889648 C97.32598694 15.96678497 97.32598694 15.96678497 97.33850098 17.08685303 C97.36335794 19.51451803 97.37987304 21.94212449 97.39428711 24.36987305 C97.39961079 25.19902473 97.40493446 26.02817642 97.41041946 26.88245392 C97.43715434 31.27245662 97.45652678 35.66243088 97.47094727 40.05249023 C97.48758217 44.58327022 97.5323486 49.11332097 97.58331871 53.64382553 C97.61700712 57.13031837 97.62852647 60.6166386 97.63417435 64.10327911 C97.64088412 65.7730287 97.65609923 67.44276703 97.68006516 69.11235809 C97.71175148 71.45367952 97.71174919 73.79304118 97.7043457 76.13452148 C97.72075104 76.82046387 97.73715637 77.50640625 97.75405884 78.21313477 C97.68269813 83.74488552 95.88120692 86.00399769 92.12084961 89.76049805 C89.68186814 90.97998878 88.18583088 90.85376076 85.46264648 90.80712891 C84.49403687 90.79479721 83.52542725 90.78246552 82.52746582 90.76976013 C81.47546997 90.75510208 80.42347412 90.74044403 79.33959961 90.7253418 C77.11304291 90.7193078 74.88647692 90.71614623 72.65991211 90.71557617 C69.14785768 90.71386274 65.63918729 90.69833512 62.12768555 90.63378906 C48.69255025 89.73066265 48.69255025 89.73066265 36.41308594 93.92602539 C33.91308185 96.41441003 32.0199468 98.80057142 30.12084961 101.76049805 C29.03603514 103.02732937 27.93555232 104.28123075 26.80834961 105.51049805 C26.27467773 106.1344043 25.74100586 106.75831055 25.19116211 107.40112305 C20.30163414 112.97333983 15.18058194 118.34316058 10.12084961 123.76049805 C9.46084961 123.43049805 8.80084961 123.10049805 8.12084961 122.76049805 C8.12084961 112.20049805 8.12084961 101.64049805 8.12084961 90.76049805 C2.4660326 90.95713881 2.4660326 90.95713881 -3.1862793 91.2109375 C-7.37899382 91.28407173 -10.081284 91.06886892 -13.40258789 88.3659668 C-17.13605835 84.43816743 -17.049153 81.74939437 -17.10375977 76.56030273 C-17.11514984 75.8186235 -17.12653992 75.07694427 -17.13827515 74.31278992 C-17.24888213 66.55613703 -17.29634802 58.79853505 -17.33911133 51.04125977 C-17.36139119 47.36077276 -17.40316452 43.68129905 -17.4621582 40.0012207 C-17.53325702 35.55730866 -17.56994427 31.11435058 -17.58222961 26.66989899 C-17.59262839 24.97775923 -17.61504885 23.28564823 -17.64982605 21.59383392 C-17.69608249 19.22085214 -17.69802951 16.85160481 -17.68969727 14.47827148 C-17.71329315 13.78297836 -17.73688904 13.08768524 -17.76119995 12.37132263 C-17.69310646 8.3522886 -16.727572 6.0790049 -13.94593811 3.32566833 C-9.49827789 -0.01709762 -5.41042392 -0.08241344 0 0 Z " fill="#ffffff" transform="translate(56.879150390625,52.239501953125)"/>
<path d="M0 0 C1.84851563 -0.03867188 1.84851563 -0.03867188 3.734375 -0.078125 C8.28588968 0.34668304 10.73177117 1.6576923 13.8624115 4.94108582 C15.72944683 8.04778809 15.65121847 10.31180405 15.68579102 13.92700195 C15.69586685 14.58933838 15.70594269 15.2516748 15.71632385 15.93408203 C15.74476883 18.11898791 15.75067881 20.30320184 15.75390625 22.48828125 C15.76355136 24.0127948 15.77364414 25.53730559 15.78416443 27.06181335 C15.80211817 30.25701326 15.80768643 33.45197001 15.8059082 36.6472168 C15.80560373 40.72975195 15.84652103 44.81071698 15.89822483 48.89288044 C15.93168604 52.04234385 15.9376628 55.19143199 15.93607903 58.34105492 C15.93960573 59.84530222 15.95280032 61.34956062 15.97607613 62.85363197 C16.16100006 76.03986691 16.16100006 76.03986691 12.83178711 80.66479492 C9.25 83.25 9.25 83.25 -0.75 84.25 C-0.75 92.5 -0.75 100.75 -0.75 109.25 C-3.75 109.25 -3.75 109.25 -6.0625 107.046875 C-6.96668034 106.03867392 -7.86218455 105.0226413 -8.75 104 C-10.13438792 102.44256359 -11.52249401 100.8880406 -12.94042969 99.36108398 C-14.75 97.25 -14.75 97.25 -16.84863281 94.18774414 C-19.8656428 90.02742703 -22.85096918 86.09674106 -27.95483398 84.60601807 C-34.11182951 83.67292736 -40.29821487 83.95339863 -46.5 84.1875 C-49.27867589 84.24376903 -52.05662729 84.28283158 -54.83575439 84.30799866 C-56.5535555 84.32865225 -58.27127877 84.36961234 -59.98797607 84.43455505 C-65.38425511 84.56477067 -68.96411108 83.80101263 -73.75 81.25 C-77.38770068 77.36978594 -77.88868766 73.81262481 -77.875 68.625 C-77.87757812 67.64273438 -77.88015625 66.66046875 -77.8828125 65.6484375 C-77.75 63.25 -77.75 63.25 -76.75 62.25 C-75.06884838 62.14262679 -73.38326843 62.10375815 -71.69873047 62.09228516 C-70.62025848 62.08202301 -69.5417865 62.07176086 -68.43063354 62.06118774 C-67.25469635 62.05388641 -66.07875916 62.04658508 -64.8671875 62.0390625 C-62.39582684 62.01098238 -59.92447277 61.98231785 -57.453125 61.953125 C-53.5426459 61.91192075 -49.63228819 61.87504923 -45.72167969 61.84863281 C-41.9574207 61.82097548 -38.19372767 61.77508685 -34.4296875 61.7265625 C-32.68399979 61.7216832 -32.68399979 61.7216832 -30.90304565 61.71670532 C-23.57615404 61.60609627 -18.46788351 60.96305013 -12.4375 56.5625 C-8.07845635 50.58899575 -8.43458547 42.7524206 -8.37109375 35.66015625 C-8.35409927 34.67502548 -8.3371048 33.68989471 -8.31959534 32.6749115 C-8.26680956 29.55417131 -8.22628594 26.43344307 -8.1875 23.3125 C-8.14358399 20.16662548 -8.09699147 17.02085345 -8.04469299 13.87510681 C-8.0126983 11.92316962 -7.98581999 9.97114078 -7.96446228 8.01905823 C-7.95097244 7.14402145 -7.9374826 6.26898468 -7.92358398 5.36743164 C-7.90931618 4.20782677 -7.90931618 4.20782677 -7.89476013 3.02479553 C-7.54815262 -1.22469949 -3.40583807 0.04239632 0 0 Z " fill="#ffffff" transform="translate(173.75,93.75)"/>
</svg>
