<?xml version="1.0" standalone="no"?>
<!DOCTYPE svg PUBLIC "-//W3C//DTD SVG 20010904//EN"
 "http://www.w3.org/TR/2001/REC-SVG-20010904/DTD/svg10.dtd">
<svg version="1.0" xmlns="http://www.w3.org/2000/svg"
 width="200.000000pt" height="200.000000pt" viewBox="0 0 200.000000 200.000000"
 preserveAspectRatio="xMidYMid meet">

<g transform="translate(0.000000,200.000000) scale(0.100000,-0.100000)"
fill="#3949A0" stroke="none">
<path d="M872 1700 c-80 -15 -192 -62 -270 -114 -128 -85 -224 -213 -278 -371
-25 -72 -28 -94 -28 -215 0 -121 3 -143 28 -215 76 -222 239 -385 461 -461 72
-25 94 -28 215 -28 121 0 143 3 215 28 222 76 385 239 461 461 25 72 28 94 28
215 0 121 -3 143 -28 215 -76 222 -241 387 -460 460 -89 30 -250 41 -344 25z
m253 -125 c220 -46 404 -230 450 -450 88 -421 -279 -788 -700 -700 -220 46
-404 230 -450 450 -42 201 16 396 160 540 144 144 339 202 540 160z"/>
<path d="M1080 1065 l-196 -195 -79 80 c-85 85 -116 98 -148 62 -34 -38 -22
-61 91 -174 89 -89 113 -108 138 -108 25 0 61 32 252 223 232 233 242 247 202
287 -39 39 -55 29 -260 -175z"/>
</g>
</svg>
