<svg version="1.1" id="Layer_1" xmlns="http://www.w3.org/2000/svg" xmlns:xlink="http://www.w3.org/1999/xlink" x="0px" y="0px"
	 width="100%" viewBox="0 0 269 258" enable-background="new 0 0 269 258" xml:space="preserve">
<path fill="#ffffff" opacity="1.000000" stroke="none" 
	d="
M148.000000,259.000000 
	C98.666672,259.000000 49.833344,259.000000 1.000013,259.000000 
	C1.000009,173.000015 1.000009,87.000031 1.000004,1.000036 
	C90.666634,1.000024 180.333267,1.000024 269.999939,1.000012 
	C269.999939,86.999962 269.999939,172.999924 269.999969,258.999939 
	C229.500000,259.000000 189.000000,259.000000 148.000000,259.000000 
M132.117157,149.382996 
	C129.290436,146.554214 126.631126,143.527649 123.589157,140.953217 
	C120.644569,138.461212 119.721962,135.613846 119.770294,131.819626 
	C119.959206,116.990799 119.846970,102.158142 119.847206,87.326912 
	C119.847427,73.662186 119.890640,59.997269 119.829720,46.332809 
	C119.802383,40.201347 117.026169,37.482407 111.773689,38.335793 
	C85.088646,42.671371 63.699638,55.768173 48.508442,78.095932 
	C25.629908,111.722404 27.432602,155.316238 52.476742,188.203232 
	C81.567589,226.404205 137.320618,235.810471 176.963913,209.205841 
	C183.972549,204.502380 184.269043,201.573059 178.202942,195.492020 
	C163.022476,180.274231 147.808563,165.089828 132.117157,149.382996 
M231.770615,109.598816 
	C231.346649,106.803925 231.056519,103.981049 230.478653,101.218346 
	C221.715820,59.322926 190.995865,30.710812 148.695236,24.996792 
	C140.806274,23.931141 138.423935,26.015564 138.420181,34.084507 
	C138.408020,60.228668 138.410095,86.372841 138.427414,112.517006 
	C138.428589,114.281204 138.601700,116.045288 138.689499,117.708229 
	C139.708939,117.933762 140.190109,118.133057 140.671448,118.133415 
	C168.813629,118.154335 196.955917,118.194435 225.097961,118.132057 
	C230.174362,118.120804 231.538086,116.369278 231.770615,109.598816 
M222.498734,136.999847 
	C197.530289,136.999847 172.561844,136.999847 147.593399,136.999847 
	C147.236053,137.750473 146.878723,138.501083 146.521393,139.251709 
	C166.768875,159.023529 187.022415,178.789154 207.257935,198.573212 
	C210.664261,201.903534 213.922897,201.076187 216.874619,198.124466 
	C231.566910,183.432312 240.558716,165.745911 244.087021,145.312683 
	C245.046097,139.758438 242.757339,137.229462 236.993469,137.037552 
	C232.499420,136.887924 227.996582,137.002625 222.498734,136.999847 
z"/>
<path fill="#3949A0" opacity="1.000000" stroke="none" 
	d="
M132.362610,149.637512 
	C147.808563,165.089828 163.022476,180.274231 178.202942,195.492020 
	C184.269043,201.573059 183.972549,204.502380 176.963913,209.205841 
	C137.320618,235.810471 81.567589,226.404205 52.476742,188.203232 
	C27.432602,155.316238 25.629908,111.722404 48.508442,78.095932 
	C63.699638,55.768173 85.088646,42.671371 111.773689,38.335793 
	C117.026169,37.482407 119.802383,40.201347 119.829720,46.332809 
	C119.890640,59.997269 119.847427,73.662186 119.847206,87.326912 
	C119.846970,102.158142 119.959206,116.990799 119.770294,131.819626 
	C119.721962,135.613846 120.644569,138.461212 123.589157,140.953217 
	C126.631126,143.527649 129.290436,146.554214 132.362610,149.637512 
M101.036064,131.485107 
	C101.036064,108.040077 101.036064,84.595039 101.036064,61.118706 
	C83.207878,62.378201 59.028553,88.748360 53.326530,112.650085 
	C45.587112,145.092194 59.862396,178.203598 89.103844,195.635162 
	C109.271194,207.657440 142.941101,209.343140 154.725006,198.785019 
	C153.839645,197.819061 152.987778,196.817139 152.061310,195.889709 
	C138.056412,181.870209 124.354362,167.526154 109.888657,153.998917 
	C103.308617,147.845749 99.293121,141.596191 101.036064,131.485107 
z"/>
<path fill="#3949A0" opacity="1.000000" stroke="none" 
	d="
M231.821289,110.023590 
	C231.538086,116.369278 230.174362,118.120804 225.097961,118.132057 
	C196.955917,118.194435 168.813629,118.154335 140.671448,118.133415 
	C140.190109,118.133057 139.708939,117.933762 138.689499,117.708229 
	C138.601700,116.045288 138.428589,114.281204 138.427414,112.517006 
	C138.410095,86.372841 138.408020,60.228668 138.420181,34.084507 
	C138.423935,26.015564 140.806274,23.931141 148.695236,24.996792 
	C190.995865,30.710812 221.715820,59.322926 230.478653,101.218346 
	C231.056519,103.981049 231.346649,106.803925 231.821289,110.023590 
M176.217896,53.216595 
	C170.136429,50.576202 164.054962,47.935810 157.204147,44.961384 
	C157.204147,64.044258 157.204147,81.441833 157.204147,99.217735 
	C175.238815,99.217735 193.039764,99.217735 211.466446,99.217735 
	C205.539856,79.233284 194.177597,64.177010 176.217896,53.216595 
z"/>
<path fill="#3949A0" opacity="1.000000" stroke="none" 
	d="
M222.998199,136.999847 
	C227.996582,137.002625 232.499420,136.887924 236.993469,137.037552 
	C242.757339,137.229462 245.046097,139.758438 244.087021,145.312683 
	C240.558716,165.745911 231.566910,183.432312 216.874619,198.124466 
	C213.922897,201.076187 210.664261,201.903534 207.257935,198.573212 
	C187.022415,178.789154 166.768875,159.023529 146.521393,139.251709 
	C146.878723,138.501083 147.236053,137.750473 147.593399,136.999847 
	C172.561844,136.999847 197.530289,136.999847 222.998199,136.999847 
z"/>
<path fill="#ffffff" opacity="1.000000" stroke="none" 
	d="
M101.036072,131.981354 
	C99.293121,141.596191 103.308617,147.845749 109.888657,153.998917 
	C124.354362,167.526154 138.056412,181.870209 152.061310,195.889709 
	C152.987778,196.817139 153.839645,197.819061 154.725006,198.785019 
	C142.941101,209.343140 109.271194,207.657440 89.103844,195.635162 
	C59.862396,178.203598 45.587112,145.092194 53.326530,112.650085 
	C59.028553,88.748360 83.207878,62.378201 101.036064,61.118706 
	C101.036064,84.595039 101.036064,108.040077 101.036072,131.981354 
z"/>
<path fill="#ffffff" opacity="1.000000" stroke="none" 
	d="
M176.521790,53.421288 
	C194.177597,64.177010 205.539856,79.233284 211.466446,99.217735 
	C193.039764,99.217735 175.238815,99.217735 157.204147,99.217735 
	C157.204147,81.441833 157.204147,64.044258 157.204147,44.961384 
	C164.054962,47.935810 170.136429,50.576202 176.521790,53.421288 
z"/>
</svg>