<?xml version="1.0" standalone="no"?>
<!DOCTYPE svg PUBLIC "-//W3C//DTD SVG 20010904//EN"
 "http://www.w3.org/TR/2001/REC-SVG-20010904/DTD/svg10.dtd">
<svg version="1.0" xmlns="http://www.w3.org/2000/svg"
 width="148.000000pt" height="87.000000pt" viewBox="0 0 148.000000 87.000000"
 preserveAspectRatio="xMidYMid meet">

<g transform="translate(0.000000,87.000000) scale(0.100000,-0.100000)"
fill="#000000" stroke="none">
<path d="M56 731 c11 -11 668 -261 686 -261 12 0 677 249 687 257 2 2 1 6 -2
9 -4 4 -156 -50 -340 -120 -183 -69 -338 -126 -345 -126 -7 0 -161 56 -342
125 -315 119 -366 137 -344 116z"/>
<path d="M56 531 c11 -11 669 -261 686 -261 12 0 677 249 687 257 2 1 1 6 -2
9 -4 4 -156 -50 -340 -120 -183 -69 -338 -126 -345 -126 -7 0 -161 56 -342
125 -315 119 -366 137 -344 116z"/>
<path d="M56 331 c11 -11 669 -261 686 -261 12 0 677 249 687 257 2 1 1 6 -2
9 -4 4 -156 -50 -340 -120 -183 -69 -338 -126 -345 -126 -7 0 -161 56 -342
125 -315 119 -366 137 -344 116z"/>
</g>
</svg>
