<svg version="1.1" id="Layer_1" xmlns="http://www.w3.org/2000/svg" xmlns:xlink="http://www.w3.org/1999/xlink" x="0px" y="0px"
	 width="100%" viewBox="0 0 303 256" enable-background="new 0 0 303 256" xml:space="preserve">
<path fill="#ffffff" opacity="1.000000" stroke="none" 
	d="
M214.000000,257.000000 
	C142.666687,257.000000 71.833382,257.000000 1.000057,257.000000 
	C1.000038,171.666718 1.000038,86.333443 1.000019,1.000126 
	C101.999908,1.000084 202.999817,1.000084 303.999817,1.000042 
	C303.999878,86.333214 303.999878,171.666428 303.999939,256.999817 
	C274.166656,257.000000 244.333328,257.000000 214.000000,257.000000 
M161.500000,41.997070 
	C129.853256,41.997337 98.206444,41.961147 66.559776,42.013039 
	C50.403549,42.039532 39.878372,52.529934 39.869259,68.524368 
	C39.846104,109.165535 39.848022,149.806717 39.867462,190.447906 
	C39.875114,206.447952 50.456890,216.921112 66.532768,216.921478 
	C123.330482,216.922760 180.128204,216.922226 236.925919,216.921478 
	C254.672623,216.921234 264.697205,206.844452 264.700531,188.973068 
	C264.707886,149.331268 264.702209,109.689453 264.703644,70.047646 
	C264.704285,52.059643 254.598511,42.010090 236.453629,42.000530 
	C211.802414,41.987541 187.151215,41.997150 161.500000,41.997070 
z"/>
<path fill="#3949A0" opacity="1.000000" stroke="none" 
	d="
M162.000000,41.997070 
	C187.151215,41.997150 211.802414,41.987541 236.453629,42.000530 
	C254.598511,42.010090 264.704285,52.059643 264.703644,70.047646 
	C264.702209,109.689453 264.707886,149.331268 264.700531,188.973068 
	C264.697205,206.844452 254.672623,216.921234 236.925919,216.921478 
	C180.128204,216.922226 123.330482,216.922760 66.532768,216.921478 
	C50.456890,216.921112 39.875114,206.447952 39.867462,190.447906 
	C39.848022,149.806717 39.846104,109.165535 39.869259,68.524368 
	C39.878372,52.529934 50.403549,42.039532 66.559776,42.013039 
	C98.206444,41.961147 129.853256,41.997337 162.000000,41.997070 
M164.499969,198.223907 
	C188.649765,198.222946 212.799591,198.240753 236.949341,198.209885 
	C244.429642,198.200317 245.950119,196.606400 245.950867,189.072556 
	C245.954788,149.433762 245.954544,109.794960 245.950424,70.156166 
	C245.949600,62.196869 244.647079,60.838043 236.679657,60.835522 
	C180.385910,60.817711 124.092155,60.818115 67.798409,60.835171 
	C59.910263,60.837563 58.516937,62.274841 58.514847,70.216965 
	C58.504452,109.689209 58.505936,149.161453 58.513206,188.633698 
	C58.514736,196.929199 59.778641,198.212601 68.067070,198.216660 
	C99.878029,198.232239 131.688995,198.223618 164.499969,198.223907 
z"/>
<path fill="#ffffff" opacity="1.000000" stroke="none" 
	d="
M163.999969,198.223969 
	C131.688995,198.223618 99.878029,198.232239 68.067070,198.216660 
	C59.778641,198.212601 58.514736,196.929199 58.513206,188.633698 
	C58.505936,149.161453 58.504452,109.689209 58.514847,70.216965 
	C58.516937,62.274841 59.910263,60.837563 67.798409,60.835171 
	C124.092155,60.818115 180.385910,60.817711 236.679657,60.835522 
	C244.647079,60.838043 245.949600,62.196869 245.950424,70.156166 
	C245.954544,109.794960 245.954788,149.433762 245.950867,189.072556 
	C245.950119,196.606400 244.429642,198.200317 236.949341,198.209885 
	C212.799591,198.240753 188.649765,198.222946 163.999969,198.223969 
M113.541954,141.998306 
	C91.236801,140.732788 79.021568,154.225204 77.426155,170.491684 
	C76.810753,176.766251 79.093834,179.540085 85.490112,179.635223 
	C92.653999,179.741760 99.820648,179.664810 106.986092,179.664902 
	C123.483284,179.665100 139.980652,179.707153 156.477570,179.639633 
	C162.389801,179.615448 164.783249,177.278305 164.689789,172.062256 
	C164.436386,157.921799 154.395035,145.247864 140.416153,143.084091 
	C131.934601,141.771225 123.168297,142.298004 113.541954,141.998306 
M116.986755,79.972145 
	C116.181892,80.162193 115.365623,80.313713 114.573868,80.548035 
	C101.386772,84.450867 93.849213,96.771591 96.699554,109.748314 
	C99.582283,122.872513 111.999107,131.140640 125.571960,128.973907 
	C137.728638,127.033249 147.149002,114.594414 145.893311,102.141228 
	C144.499527,88.318535 132.618607,78.892815 116.986755,79.972145 
M175.356110,133.923462 
	C178.217453,135.581604 181.020676,138.539917 183.950287,138.670853 
	C196.065262,139.212341 208.219864,139.006104 220.357117,138.853668 
	C226.671799,138.774368 230.209991,135.081757 230.109756,129.300110 
	C230.013763,123.762360 226.498764,120.355797 220.387390,120.303268 
	C208.415375,120.200371 196.441132,120.192444 184.469193,120.299873 
	C176.421219,120.372086 172.850845,125.385811 175.356110,133.923462 
M183.264404,107.590752 
	C195.386856,107.628700 207.510773,107.794304 219.631180,107.654739 
	C226.452148,107.576195 230.090576,104.058990 230.092270,98.251625 
	C230.093918,92.584145 226.698563,88.997780 220.130875,88.852432 
	C208.179504,88.587952 196.214859,88.622017 184.262024,88.854401 
	C178.348099,88.969376 174.747757,92.357033 174.213348,97.317680 
	C173.683044,102.240128 176.551956,105.767540 183.264404,107.590752 
z"/>
<path fill="#3949A0" opacity="1.000000" stroke="none" 
	d="
M114.035934,141.998306 
	C123.168297,142.298004 131.934601,141.771225 140.416153,143.084091 
	C154.395035,145.247864 164.436386,157.921799 164.689789,172.062256 
	C164.783249,177.278305 162.389801,179.615448 156.477570,179.639633 
	C139.980652,179.707153 123.483284,179.665100 106.986092,179.664902 
	C99.820648,179.664810 92.653999,179.741760 85.490112,179.635223 
	C79.093834,179.540085 76.810753,176.766251 77.426155,170.491684 
	C79.021568,154.225204 91.236801,140.732788 114.035934,141.998306 
z"/>
<path fill="#3949A0" opacity="1.000000" stroke="none" 
	d="
M117.432243,79.943604 
	C132.618607,78.892815 144.499527,88.318535 145.893311,102.141228 
	C147.149002,114.594414 137.728638,127.033249 125.571960,128.973907 
	C111.999107,131.140640 99.582283,122.872513 96.699554,109.748314 
	C93.849213,96.771591 101.386772,84.450867 114.573868,80.548035 
	C115.365623,80.313713 116.181892,80.162193 117.432243,79.943604 
z"/>
<path fill="#3949A0" opacity="1.000000" stroke="none" 
	d="
M175.187042,133.574265 
	C172.850845,125.385811 176.421219,120.372086 184.469193,120.299873 
	C196.441132,120.192444 208.415375,120.200371 220.387390,120.303268 
	C226.498764,120.355797 230.013763,123.762360 230.109756,129.300110 
	C230.209991,135.081757 226.671799,138.774368 220.357117,138.853668 
	C208.219864,139.006104 196.065262,139.212341 183.950287,138.670853 
	C181.020676,138.539917 178.217453,135.581604 175.187042,133.574265 
z"/>
<path fill="#3949A0" opacity="1.000000" stroke="none" 
	d="
M182.850586,107.509674 
	C176.551956,105.767540 173.683044,102.240128 174.213348,97.317680 
	C174.747757,92.357033 178.348099,88.969376 184.262024,88.854401 
	C196.214859,88.622017 208.179504,88.587952 220.130875,88.852432 
	C226.698563,88.997780 230.093918,92.584145 230.092270,98.251625 
	C230.090576,104.058990 226.452148,107.576195 219.631180,107.654739 
	C207.510773,107.794304 195.386856,107.628700 182.850586,107.509674 
z"/>
</svg>