<svg version="1.1" id="Layer_1" xmlns="http://www.w3.org/2000/svg" xmlns:xlink="http://www.w3.org/1999/xlink" x="0px" y="0px"
	 width="100%" viewBox="0 0 258 259" enable-background="new 0 0 258 259" xml:space="preserve">
<path fill="#ffffff" opacity="1.000000" stroke="none" 
	d="
M176.000000,260.000000 
	C117.333336,260.000000 59.166668,260.000000 1.000000,260.000000 
	C1.000000,173.666672 1.000000,87.333336 1.000000,1.000000 
	C87.000000,1.000000 173.000000,1.000000 259.000000,1.000000 
	C259.000000,87.333336 259.000000,173.666672 259.000000,260.000000 
	C231.500000,260.000000 204.000000,260.000000 176.000000,260.000000 
M126.465622,32.930855 
	C122.196869,35.405254 121.879623,39.557549 121.877930,43.818542 
	C121.868317,67.982727 121.872536,92.146919 121.872063,116.311104 
	C121.872025,118.091850 121.872055,119.872597 121.872055,122.283028 
	C119.335396,122.283028 117.387962,122.283035 115.440536,122.283028 
	C91.109703,122.282883 66.778839,122.298378 42.448048,122.267090 
	C38.419273,122.261909 34.774342,122.916229 32.613091,126.817062 
	C28.663034,133.946503 33.472359,140.854462 42.548237,140.876114 
	C67.045586,140.934586 91.543159,140.896683 116.040649,140.897018 
	C117.821144,140.897034 119.601631,140.897018 121.872063,140.897018 
	C121.872063,145.227341 121.872017,149.019730 121.872070,152.812119 
	C121.872375,175.143158 121.846542,197.474243 121.887611,219.805206 
	C121.901459,227.336731 125.330963,231.381302 131.386032,231.284332 
	C137.262970,231.190231 140.535507,227.272202 140.546906,220.026733 
	C140.585175,195.695953 140.561890,171.365082 140.562149,147.034256 
	C140.562180,145.112625 140.562164,143.190994 140.562164,140.897110 
	C158.948257,140.897110 176.582413,140.898285 194.216568,140.896637 
	C203.215622,140.895798 212.218628,141.053329 221.212479,140.835144 
	C228.558487,140.656952 232.816467,134.737762 230.552231,128.326996 
	C228.814896,123.407997 224.899551,122.259872 220.207718,122.266197 
	C195.710281,122.299202 171.212769,122.288193 146.715302,122.271523 
	C144.787567,122.270210 142.859940,122.108780 140.562057,122.005058 
	C140.562057,119.586090 140.562119,117.774605 140.562057,115.963120 
	C140.561340,91.632286 140.597763,67.301369 140.540710,42.970661 
	C140.519272,33.825165 135.389099,29.945570 126.465622,32.930855 
M68.689423,207.202957 
	C70.694702,205.286255 72.699982,203.369568 75.433182,200.757111 
	C78.192795,203.763092 80.550232,206.530136 83.118622,209.085129 
	C87.744789,213.687180 93.353317,213.975555 97.196945,209.972504 
	C101.194588,205.809021 100.968903,200.536713 96.261292,195.850311 
	C93.698021,193.298584 90.722748,191.160706 86.616020,187.738449 
	C90.546654,184.568390 93.324783,182.689606 95.663483,180.368134 
	C100.896942,175.173187 101.192558,169.728317 96.772224,165.541885 
	C92.394493,161.395813 86.698341,161.991547 81.956978,167.255478 
	C79.772263,169.681000 77.841606,172.335342 75.069160,175.791779 
	C71.453423,171.663589 69.221069,168.729736 66.596359,166.203537 
	C62.045219,161.823212 56.704094,161.698486 52.836388,165.555664 
	C48.883186,169.498108 48.951721,174.768890 53.407055,179.276062 
	C56.072624,181.972626 59.210144,184.202698 63.675777,187.927002 
	C59.288746,191.508591 56.074070,193.864655 53.185848,196.569321 
	C50.497234,199.087051 49.234798,202.208481 50.535938,206.040482 
	C53.293259,214.161072 61.108902,214.925552 68.689423,207.202957 
M156.622360,73.197983 
	C155.939621,80.006462 158.852890,83.914970 165.374847,84.388000 
	C169.444702,84.683174 173.553375,84.442886 178.097702,84.442886 
	C178.097702,89.187546 177.931946,93.157326 178.144592,97.106735 
	C178.354813,101.011314 179.967560,104.781822 183.982483,105.444260 
	C187.071793,105.953979 191.269699,105.513466 193.515564,103.694237 
	C195.632156,101.979744 196.607361,97.946068 196.749588,94.870895 
	C197.221054,84.676697 196.996155,84.821487 207.017670,84.425224 
	C209.858749,84.312889 213.099625,83.651665 215.360596,82.089378 
	C218.552017,79.884163 219.487885,76.238602 218.110214,72.284950 
	C216.416733,67.425026 212.668564,65.987450 207.974136,65.870445 
	C197.121262,65.599960 197.121887,65.574959 196.892151,55.052658 
	C196.741211,48.138344 193.044266,43.910892 187.285049,44.066952 
	C181.835739,44.214611 178.172806,48.525860 178.090561,54.961205 
	C178.044846,58.538395 178.082352,62.116653 178.082352,65.891739 
	C173.651428,65.891739 170.005264,65.829300 166.362106,65.907509 
	C161.787628,66.005714 158.370270,67.894356 156.622360,73.197983 
M169.140121,181.651672 
	C180.931290,181.655472 192.724289,181.786133 204.512939,181.615356 
	C211.561188,181.513260 215.430786,177.839645 215.369431,171.960129 
	C215.309937,166.258026 211.670624,162.817444 204.707779,162.688812 
	C193.252701,162.477219 181.788895,162.499496 170.332733,162.677399 
	C163.744980,162.779678 160.043671,166.026581 159.561813,171.412064 
	C159.103561,176.533661 162.002563,179.915314 169.140121,181.651672 
M160.254028,207.112137 
	C162.153748,211.256607 165.564316,212.797852 169.920731,212.791718 
	C181.562943,212.775345 193.205505,212.835724 204.847351,212.767319 
	C211.443359,212.728577 215.399612,209.114960 215.390778,203.389603 
	C215.381714,197.510880 211.625580,194.113556 204.916992,194.087631 
	C193.274918,194.042633 181.632339,194.034515 169.990372,194.090210 
	C162.213562,194.127411 158.737961,198.477509 160.254028,207.112137 
M47.123493,76.169243 
	C49.038986,82.296532 51.206573,84.084267 57.434608,84.127548 
	C69.224327,84.209503 81.015663,84.226234 92.805046,84.123901 
	C99.177055,84.068581 102.949051,80.528320 102.987640,74.967178 
	C103.026489,69.368309 99.345558,65.766457 92.992859,65.698181 
	C81.037895,65.569695 69.079498,65.565811 57.124653,65.699623 
	C50.339771,65.775558 47.671944,68.530930 47.123493,76.169243 
z"/>
<path fill="#3949A0" opacity="1.000000" stroke="none" 
	d="
M126.803520,32.776955 
	C135.389099,29.945570 140.519272,33.825165 140.540710,42.970661 
	C140.597763,67.301369 140.561340,91.632286 140.562057,115.963120 
	C140.562119,117.774605 140.562057,119.586090 140.562057,122.005058 
	C142.859940,122.108780 144.787567,122.270210 146.715302,122.271523 
	C171.212769,122.288193 195.710281,122.299202 220.207718,122.266197 
	C224.899551,122.259872 228.814896,123.407997 230.552231,128.326996 
	C232.816467,134.737762 228.558487,140.656952 221.212479,140.835144 
	C212.218628,141.053329 203.215622,140.895798 194.216568,140.896637 
	C176.582413,140.898285 158.948257,140.897110 140.562164,140.897110 
	C140.562164,143.190994 140.562180,145.112625 140.562149,147.034256 
	C140.561890,171.365082 140.585175,195.695953 140.546906,220.026733 
	C140.535507,227.272202 137.262970,231.190231 131.386032,231.284332 
	C125.330963,231.381302 121.901459,227.336731 121.887611,219.805206 
	C121.846542,197.474243 121.872375,175.143158 121.872070,152.812119 
	C121.872017,149.019730 121.872063,145.227341 121.872063,140.897018 
	C119.601631,140.897018 117.821144,140.897034 116.040649,140.897018 
	C91.543159,140.896683 67.045586,140.934586 42.548237,140.876114 
	C33.472359,140.854462 28.663034,133.946503 32.613091,126.817062 
	C34.774342,122.916229 38.419273,122.261909 42.448048,122.267090 
	C66.778839,122.298378 91.109703,122.282883 115.440536,122.283028 
	C117.387962,122.283035 119.335396,122.283028 121.872055,122.283028 
	C121.872055,119.872597 121.872025,118.091850 121.872063,116.311104 
	C121.872536,92.146919 121.868317,67.982727 121.877930,43.818542 
	C121.879623,39.557549 122.196869,35.405254 126.803520,32.776955 
z"/>
<path fill="#3949A0" opacity="1.000000" stroke="none" 
	d="
M68.436333,207.457214 
	C61.108902,214.925552 53.293259,214.161072 50.535938,206.040482 
	C49.234798,202.208481 50.497234,199.087051 53.185848,196.569321 
	C56.074070,193.864655 59.288746,191.508591 63.675777,187.927002 
	C59.210144,184.202698 56.072624,181.972626 53.407055,179.276062 
	C48.951721,174.768890 48.883186,169.498108 52.836388,165.555664 
	C56.704094,161.698486 62.045219,161.823212 66.596359,166.203537 
	C69.221069,168.729736 71.453423,171.663589 75.069160,175.791779 
	C77.841606,172.335342 79.772263,169.681000 81.956978,167.255478 
	C86.698341,161.991547 92.394493,161.395813 96.772224,165.541885 
	C101.192558,169.728317 100.896942,175.173187 95.663483,180.368134 
	C93.324783,182.689606 90.546654,184.568390 86.616020,187.738449 
	C90.722748,191.160706 93.698021,193.298584 96.261292,195.850311 
	C100.968903,200.536713 101.194588,205.809021 97.196945,209.972504 
	C93.353317,213.975555 87.744789,213.687180 83.118622,209.085129 
	C80.550232,206.530136 78.192795,203.763092 75.433182,200.757111 
	C72.699982,203.369568 70.694702,205.286255 68.436333,207.457214 
z"/>
<path fill="#3949A0" opacity="1.000000" stroke="none" 
	d="
M156.726929,72.829201 
	C158.370270,67.894356 161.787628,66.005714 166.362106,65.907509 
	C170.005264,65.829300 173.651428,65.891739 178.082352,65.891739 
	C178.082352,62.116653 178.044846,58.538395 178.090561,54.961205 
	C178.172806,48.525860 181.835739,44.214611 187.285049,44.066952 
	C193.044266,43.910892 196.741211,48.138344 196.892151,55.052658 
	C197.121887,65.574959 197.121262,65.599960 207.974136,65.870445 
	C212.668564,65.987450 216.416733,67.425026 218.110214,72.284950 
	C219.487885,76.238602 218.552017,79.884163 215.360596,82.089378 
	C213.099625,83.651665 209.858749,84.312889 207.017670,84.425224 
	C196.996155,84.821487 197.221054,84.676697 196.749588,94.870895 
	C196.607361,97.946068 195.632156,101.979744 193.515564,103.694237 
	C191.269699,105.513466 187.071793,105.953979 183.982483,105.444260 
	C179.967560,104.781822 178.354813,101.011314 178.144592,97.106735 
	C177.931946,93.157326 178.097702,89.187546 178.097702,84.442886 
	C173.553375,84.442886 169.444702,84.683174 165.374847,84.388000 
	C158.852890,83.914970 155.939621,80.006462 156.726929,72.829201 
z"/>
<path fill="#3949A0" opacity="1.000000" stroke="none" 
	d="
M168.712021,181.619003 
	C162.002563,179.915314 159.103561,176.533661 159.561813,171.412064 
	C160.043671,166.026581 163.744980,162.779678 170.332733,162.677399 
	C181.788895,162.499496 193.252701,162.477219 204.707779,162.688812 
	C211.670624,162.817444 215.309937,166.258026 215.369431,171.960129 
	C215.430786,177.839645 211.561188,181.513260 204.512939,181.615356 
	C192.724289,181.786133 180.931290,181.655472 168.712021,181.619003 
z"/>
<path fill="#3949A0" opacity="1.000000" stroke="none" 
	d="
M160.121323,206.764130 
	C158.737961,198.477509 162.213562,194.127411 169.990372,194.090210 
	C181.632339,194.034515 193.274918,194.042633 204.916992,194.087631 
	C211.625580,194.113556 215.381714,197.510880 215.390778,203.389603 
	C215.399612,209.114960 211.443359,212.728577 204.847351,212.767319 
	C193.205505,212.835724 181.562943,212.775345 169.920731,212.791718 
	C165.564316,212.797852 162.153748,211.256607 160.121323,206.764130 
z"/>
<path fill="#3949A0" opacity="1.000000" stroke="none" 
	d="
M47.113033,75.769661 
	C47.671944,68.530930 50.339771,65.775558 57.124653,65.699623 
	C69.079498,65.565811 81.037895,65.569695 92.992859,65.698181 
	C99.345558,65.766457 103.026489,69.368309 102.987640,74.967178 
	C102.949051,80.528320 99.177055,84.068581 92.805046,84.123901 
	C81.015663,84.226234 69.224327,84.209503 57.434608,84.127548 
	C51.206573,84.084267 49.038986,82.296532 47.113033,75.769661 
z"/>
</svg>