<svg version="1.1" id="Layer_1" xmlns="http://www.w3.org/2000/svg" xmlns:xlink="http://www.w3.org/1999/xlink" x="0px" y="0px"
	 width="100%" viewBox="0 0 474 451" enable-background="new 0 0 474 451" xml:space="preserve">
<path fill="#242E81" opacity="1.000000" stroke="none" 
	d="
M286.000000,452.000000 
	C190.666672,452.000000 95.833336,452.000000 1.000000,452.000000 
	C1.000000,301.666656 1.000000,151.333328 1.000000,1.000000 
	C159.000000,1.000000 317.000000,1.000000 475.000000,1.000000 
	C475.000000,151.333328 475.000000,301.666656 475.000000,452.000000 
	C412.166656,452.000000 349.333344,452.000000 286.000000,452.000000 
M279.019440,393.383667 
	C364.312378,372.233704 421.259399,286.738892 408.243073,199.379715 
	C394.087006,104.371223 308.072845,38.419621 213.657974,50.181026 
	C131.965515,60.357590 67.959457,125.555031 60.997032,207.623978 
	C55.419353,273.370361 79.875092,326.915222 133.008438,365.897797 
	C176.569290,397.857269 225.693161,406.060669 279.019440,393.383667 
z"/>
<path fill="#ffffff" opacity="1.000000" stroke="#ffffff" stroke-width="3"
	d="
M278.633972,393.526306 
	C225.693161,406.060669 176.569290,397.857269 133.008438,365.897797 
	C79.875092,326.915222 55.419353,273.370361 60.997032,207.623978 
	C67.959457,125.555031 131.965515,60.357590 213.657974,50.181026 
	C308.072845,38.419621 394.087006,104.371223 408.243073,199.379715 
	C421.259399,286.738892 364.312378,372.233704 278.633972,393.526306 
M303.758118,379.397003 
	C375.699585,347.457611 415.970551,271.412872 402.146881,193.606812 
	C385.998505,102.716148 297.968384,40.643112 207.354645,56.252155 
	C129.982971,69.580132 72.603905,130.848557 65.976227,209.518860 
	C60.862305,270.221130 82.868279,320.883453 131.016724,357.959686 
	C183.454132,398.338593 241.688400,404.410339 303.758118,379.397003 
z"/>
<path fill="#242E81" opacity="1.000000" stroke="none" 
	d="
M303.427368,379.584412 
	C241.688400,404.410339 183.454132,398.338593 131.016724,357.959686 
	C82.868279,320.883453 60.862305,270.221130 65.976227,209.518860 
	C72.603905,130.848557 129.982971,69.580132 207.354645,56.252155 
	C297.968384,40.643112 385.998505,102.716148 402.146881,193.606812 
	C415.970551,271.412872 375.699585,347.457611 303.427368,379.584412 
M228.473770,242.408539 
	C237.115524,233.849075 245.369461,224.842514 254.537689,216.889984 
	C260.484009,211.732132 259.298523,206.049423 259.034943,199.681412 
	C249.009750,199.681412 239.521439,199.684357 230.033127,199.680588 
	C220.574448,199.676834 218.719574,197.800735 218.712524,188.213455 
	C218.705429,178.598984 218.710968,168.984512 218.710968,159.082413 
	C202.977005,159.082413 187.833023,158.835571 172.703140,159.190384 
	C165.533859,159.358505 161.189835,164.982422 161.180466,172.913513 
	C161.140121,207.079056 161.137161,241.244720 161.180466,275.410248 
	C161.192017,284.533081 165.899399,289.266785 175.060303,289.294159 
	C198.559357,289.364441 222.058960,289.375671 245.557907,289.290009 
	C255.395523,289.254150 260.178528,283.399048 258.805756,272.996735 
	C248.896881,272.996735 238.908905,273.334503 228.965805,272.814178 
	C225.469589,272.631226 221.311676,271.174500 218.807724,268.845856 
	C213.596207,263.999176 214.035065,263.646637 209.801163,269.882416 
	C208.949112,271.137329 207.155777,272.862823 206.165604,272.650421 
	C204.732819,272.343018 203.144852,270.684357 202.494598,269.216187 
	C200.921021,265.663300 199.851654,261.887115 198.125290,256.886658 
	C196.732224,260.668701 195.926300,263.133423 194.925842,265.516479 
	C192.696075,270.827698 187.327286,274.083038 182.128586,272.813843 
	C180.605576,272.442017 178.552994,270.480591 178.454163,269.123138 
	C178.360992,267.843475 180.661346,265.128601 181.665833,265.239777 
	C187.147202,265.846497 188.468643,262.433258 189.566177,258.318878 
	C190.294830,255.587341 190.854721,252.647980 192.318497,250.323166 
	C193.663895,248.186310 196.127304,245.370941 198.079971,245.384979 
	C200.059952,245.399231 202.541565,248.193512 203.852859,250.348587 
	C205.501999,253.058960 206.185760,256.356750 207.380615,259.662659 
	C215.834793,254.801834 221.272858,258.963898 226.335922,265.173187 
	C226.837204,262.180939 226.710434,259.748291 226.864090,257.333496 
	C227.167206,252.569656 227.625717,247.815689 228.473770,242.408539 
M238.015045,243.597290 
	C230.898224,249.671692 235.731644,257.555511 234.196625,264.489380 
	C250.010773,266.531708 251.191345,266.090912 261.559113,255.804459 
	C272.283966,245.163788 283.096100,234.611115 293.302765,224.577621 
	C287.056091,218.103836 281.433167,212.276505 275.198883,205.815536 
	C263.013641,218.207840 250.775986,230.653458 238.015045,243.597290 
M233.595428,191.986420 
	C241.853027,191.986420 250.110626,191.986420 259.597900,191.986420 
	C248.888275,181.267822 239.058777,171.421310 229.210571,161.593521 
	C228.553009,160.937302 227.753891,160.422913 226.493896,159.425705 
	C226.493896,170.580627 226.493896,181.085556 226.493896,191.986420 
	C228.690430,191.986420 230.656906,191.986420 233.595428,191.986420 
M304.117920,199.468216 
	C293.296936,188.963516 292.646851,188.974884 282.042053,199.911697 
	C281.851349,200.108368 281.826385,200.465729 282.009399,199.960526 
	C287.959625,205.951828 293.645691,211.677170 299.614929,217.687622 
	C301.147125,216.057571 302.959595,214.141846 304.758301,212.213287 
	C309.334259,207.306976 309.310822,205.033844 304.117920,199.468216 
z"/>
<path fill="#FDFDFE" opacity="1.000000" stroke="none" 
	d="
M228.246887,242.733093 
	C227.625717,247.815689 227.167206,252.569656 226.864090,257.333496 
	C226.710434,259.748291 226.837204,262.180939 226.335922,265.173187 
	C221.272858,258.963898 215.834793,254.801834 207.380615,259.662659 
	C206.185760,256.356750 205.501999,253.058960 203.852859,250.348587 
	C202.541565,248.193512 200.059952,245.399231 198.079971,245.384979 
	C196.127304,245.370941 193.663895,248.186310 192.318497,250.323166 
	C190.854721,252.647980 190.294830,255.587341 189.566177,258.318878 
	C188.468643,262.433258 187.147202,265.846497 181.665833,265.239777 
	C180.661346,265.128601 178.360992,267.843475 178.454163,269.123138 
	C178.552994,270.480591 180.605576,272.442017 182.128586,272.813843 
	C187.327286,274.083038 192.696075,270.827698 194.925842,265.516479 
	C195.926300,263.133423 196.732224,260.668701 198.125290,256.886658 
	C199.851654,261.887115 200.921021,265.663300 202.494598,269.216187 
	C203.144852,270.684357 204.732819,272.343018 206.165604,272.650421 
	C207.155777,272.862823 208.949112,271.137329 209.801163,269.882416 
	C214.035065,263.646637 213.596207,263.999176 218.807724,268.845856 
	C221.311676,271.174500 225.469589,272.631226 228.965805,272.814178 
	C238.908905,273.334503 248.896881,272.996735 258.805756,272.996735 
	C260.178528,283.399048 255.395523,289.254150 245.557907,289.290009 
	C222.058960,289.375671 198.559357,289.364441 175.060303,289.294159 
	C165.899399,289.266785 161.192017,284.533081 161.180466,275.410248 
	C161.137161,241.244720 161.140121,207.079056 161.180466,172.913513 
	C161.189835,164.982422 165.533859,159.358505 172.703140,159.190384 
	C187.833023,158.835571 202.977005,159.082413 218.710968,159.082413 
	C218.710968,168.984512 218.705429,178.598984 218.712524,188.213455 
	C218.719574,197.800735 220.574448,199.676834 230.033127,199.680588 
	C239.521439,199.684357 249.009750,199.681412 259.034943,199.681412 
	C259.298523,206.049423 260.484009,211.732132 254.537689,216.889984 
	C245.369461,224.842514 237.115524,233.849075 228.246887,242.733093 
z"/>
<path fill="#F9FAFC" opacity="1.000000" stroke="none" 
	d="
M238.276672,243.348175 
	C250.775986,230.653458 263.013641,218.207840 275.198883,205.815536 
	C281.433167,212.276505 287.056091,218.103836 293.302765,224.577621 
	C283.096100,234.611115 272.283966,245.163788 261.559113,255.804459 
	C251.191345,266.090912 250.010773,266.531708 234.196625,264.489380 
	C235.731644,257.555511 230.898224,249.671692 238.276672,243.348175 
z"/>
<path fill="#F9F9FC" opacity="1.000000" stroke="none" 
	d="
M233.109406,191.986420 
	C230.656906,191.986420 228.690430,191.986420 226.493896,191.986420 
	C226.493896,181.085556 226.493896,170.580627 226.493896,159.425705 
	C227.753891,160.422913 228.553009,160.937302 229.210571,161.593521 
	C239.058777,171.421310 248.888275,181.267822 259.597900,191.986420 
	C250.110626,191.986420 241.853027,191.986420 233.109406,191.986420 
z"/>
<path fill="#F7F8FB" opacity="1.000000" stroke="none" 
	d="
M304.382202,199.717972 
	C309.310822,205.033844 309.334259,207.306976 304.758301,212.213287 
	C302.959595,214.141846 301.147125,216.057571 299.614929,217.687622 
	C293.645691,211.677170 287.959625,205.951828 282.009399,199.960526 
	C281.826385,200.465729 281.851349,200.108368 282.042053,199.911697 
	C292.646851,188.974884 293.296936,188.963516 304.382202,199.717972 
z"/>
</svg>