<svg version="1.1" id="Layer_1" xmlns="http://www.w3.org/2000/svg" xmlns:xlink="http://www.w3.org/1999/xlink" x="0px" y="0px"
	 width="100%" viewBox="0 0 478 470" enable-background="new 0 0 478 470" xml:space="preserve">
<path fill="#242E81" opacity="1.000000" stroke="none" 
	d="
M286.000000,471.000000 
	C190.666672,471.000000 95.833336,471.000000 1.000000,471.000000 
	C1.000000,314.333344 1.000000,157.666672 1.000000,1.000000 
	C160.333328,1.000000 319.666656,1.000000 479.000000,1.000000 
	C479.000000,157.666672 479.000000,314.333344 479.000000,471.000000 
	C414.833344,471.000000 350.666656,471.000000 286.000000,471.000000 
M213.737747,55.308441 
	C209.633682,55.993824 205.497543,56.527435 201.430252,57.386848 
	C106.906342,77.359665 47.272087,165.571594 63.904541,260.768036 
	C80.128967,353.629150 171.257187,417.692169 264.494232,401.782379 
	C343.519135,388.297729 403.128479,325.078064 409.998749,245.155945 
	C415.614624,179.826508 391.101471,126.725594 338.677765,87.503006 
	C302.038269,60.089951 260.071289,50.232716 213.737747,55.308441 
z"/>
<path fill="#ffffff" opacity="1.000000" stroke="#ffffff" stroke-width="3"
	d="
M214.179031,55.246582 
	C260.071289,50.232716 302.038269,60.089951 338.677765,87.503006 
	C391.101471,126.725594 415.614624,179.826508 409.998749,245.155945 
	C403.128479,325.078064 343.519135,388.297729 264.494232,401.782379 
	C171.257187,417.692169 80.128967,353.629150 63.904541,260.768036 
	C47.272087,165.571594 106.906342,77.359665 201.430252,57.386848 
	C205.497543,56.527435 209.633682,55.993824 214.179031,55.246582 
M202.157410,395.573883 
	C224.821350,400.106903 247.522949,400.343811 270.123932,395.450867 
	C361.859039,375.590912 419.098053,290.566620 403.084564,198.145996 
	C387.093719,105.855812 294.422089,43.104202 202.521133,62.336559 
	C108.854561,81.938416 50.386417,171.344040 69.943382,265.065704 
	C83.465408,329.866486 137.308990,383.243896 202.157410,395.573883 
z"/>
<path fill="#242E81" opacity="1.000000" stroke="none" 
	d="
M201.749329,395.449951 
	C137.308990,383.243896 83.465408,329.866486 69.943382,265.065704 
	C50.386417,171.344040 108.854561,81.938416 202.521133,62.336559 
	C294.422089,43.104202 387.093719,105.855812 403.084564,198.145996 
	C419.098053,290.566620 361.859039,375.590912 270.123932,395.450867 
	C247.522949,400.343811 224.821350,400.106903 201.749329,395.449951 
M173.495728,249.917770 
	C185.546097,282.082947 215.241211,299.228302 248.226486,293.065826 
	C283.499084,286.476013 306.746613,251.628036 299.515900,216.182953 
	C292.281219,180.718323 256.647736,157.536682 221.696381,165.556900 
	C183.528336,174.315247 162.278610,210.985794 173.495728,249.917770 
z"/>
<path fill="#FDFDFE" opacity="1.000000" stroke="none" 
	d="
M173.373505,249.538055 
	C162.278610,210.985794 183.528336,174.315247 221.696381,165.556900 
	C256.647736,157.536682 292.281219,180.718323 299.515900,216.182953 
	C306.746613,251.628036 283.499084,286.476013 248.226486,293.065826 
	C215.241211,299.228302 185.546097,282.082947 173.373505,249.538055 
M220.086319,228.404327 
	C218.905304,227.229385 217.770187,226.003540 216.534561,224.889160 
	C212.955017,221.660889 209.186371,221.507721 206.328735,224.414780 
	C203.540237,227.251511 203.623047,231.325653 206.838959,234.661575 
	C211.810211,239.818283 216.878708,244.885635 222.027664,249.865051 
	C225.445786,253.170609 229.242462,253.287613 232.623245,249.964828 
	C243.316483,239.455124 253.929794,228.861771 264.432037,218.161407 
	C267.565704,214.968658 267.426331,210.429398 264.440948,207.896347 
	C261.076538,205.041672 257.701477,205.473129 254.657745,208.491699 
	C247.205109,215.882690 239.732437,223.256149 232.428452,230.792313 
	C230.855438,232.415329 229.959457,234.694489 228.751602,236.671387 
	C227.993118,236.339417 227.234634,236.007431 226.476151,235.675446 
	C224.514297,233.420105 222.552444,231.164749 220.086319,228.404327 
z"/>
<path fill="#242E81" opacity="1.000000" stroke="none" 
	d="
M220.338455,228.656860 
	C222.552444,231.164749 224.514297,233.420105 226.476151,235.675446 
	C227.234634,236.007431 227.993118,236.339417 228.751602,236.671387 
	C229.959457,234.694489 230.855438,232.415329 232.428452,230.792313 
	C239.732437,223.256149 247.205109,215.882690 254.657745,208.491699 
	C257.701477,205.473129 261.076538,205.041672 264.440948,207.896347 
	C267.426331,210.429398 267.565704,214.968658 264.432037,218.161407 
	C253.929794,228.861771 243.316483,239.455124 232.623245,249.964828 
	C229.242462,253.287613 225.445786,253.170609 222.027664,249.865051 
	C216.878708,244.885635 211.810211,239.818283 206.838959,234.661575 
	C203.623047,231.325653 203.540237,227.251511 206.328735,224.414780 
	C209.186371,221.507721 212.955017,221.660889 216.534561,224.889160 
	C217.770187,226.003540 218.905304,227.229385 220.338455,228.656860 
z"/>
</svg>