<svg version="1.1" id="Layer_1" xmlns="http://www.w3.org/2000/svg" xmlns:xlink="http://www.w3.org/1999/xlink" x="0px" y="0px"
	 width="100%" viewBox="0 0 450 421" enable-background="new 0 0 450 421" xml:space="preserve">
<path fill="#242E81" opacity="1.000000" stroke="none" 
	d="
M255.000000,422.000000 
	C170.024231,422.000000 85.548470,422.000000 1.036354,422.000000 
	C1.036354,281.731171 1.036354,141.462311 1.036354,1.096729 
	C150.892426,1.096729 300.784943,1.096729 450.838745,1.096729 
	C450.838745,141.333191 450.838745,281.666565 450.838745,422.000000 
	C385.795624,422.000000 320.647797,422.000000 255.000000,422.000000 
M284.580261,45.039886 
	C253.164368,34.065441 221.219238,32.131706 188.631973,38.961246 
	C96.211060,58.330563 34.792431,152.324081 54.376106,244.613281 
	C74.875717,341.218903 166.636505,401.156891 263.222473,381.031372 
	C355.728638,361.755951 417.508881,267.865692 397.518646,175.553711 
	C383.792053,112.166428 345.727417,68.888588 284.580261,45.039886 
z"/>
<path fill="#ffffff" opacity="1.000000" stroke="#ffffff" stroke-width="3"
	d="
M284.954773,45.151966 
	C345.727417,68.888588 383.792053,112.166428 397.518646,175.553711 
	C417.508881,267.865692 355.728638,361.755951 263.222473,381.031372 
	C166.636505,401.156891 74.875717,341.218903 54.376106,244.613281 
	C34.792431,152.324081 96.211060,58.330563 188.631973,38.961246 
	C221.219238,32.131706 253.164368,34.065441 284.954773,45.151966 
M232.190872,40.101700 
	C222.063278,40.683998 211.842636,40.585358 201.822571,41.954594 
	C108.153389,54.754429 42.923260,143.622284 58.196331,237.311356 
	C73.494095,331.151917 162.377670,393.867920 256.379944,377.149170 
	C347.282318,360.981750 409.250854,273.138977 393.757263,182.411453 
	C380.107605,102.481339 314.556335,44.417412 232.190872,40.101700 
z"/>
<path fill="#242E81" opacity="1.000000" stroke="none" 
	d="
M232.659485,40.115585 
	C314.556335,44.417412 380.107605,102.481339 393.757263,182.411453 
	C409.250854,273.138977 347.282318,360.981750 256.379944,377.149170 
	C162.377670,393.867920 73.494095,331.151917 58.196331,237.311356 
	C42.923260,143.622284 108.153389,54.754429 201.822571,41.954594 
	C211.842636,40.585358 222.063278,40.683998 232.659485,40.115585 
M272.962921,275.324646 
	C280.647217,275.018372 283.760376,272.296112 282.639923,264.920197 
	C281.684753,258.632202 280.003723,252.082581 276.980957,246.558624 
	C270.840088,235.336395 260.838867,228.914444 247.811081,226.884369 
	C244.592590,239.595413 241.473495,251.913879 238.354385,264.232361 
	C234.984421,255.638123 232.665207,247.306442 230.643631,238.903152 
	C230.274826,237.370132 230.733322,235.346329 231.480011,233.893478 
	C233.426331,230.106461 235.744568,226.510590 238.166824,222.411423 
	C229.664200,222.411423 221.846390,222.411423 213.281189,222.411423 
	C215.508743,226.209991 217.497192,229.415298 219.283859,232.729401 
	C220.118759,234.278030 221.389343,236.231705 221.050507,237.668930 
	C218.906342,246.763947 216.366653,255.765717 213.957474,264.798248 
	C211.528824,258.429260 209.968979,252.154907 208.398315,245.883270 
	C206.833374,239.634537 205.257645,233.388519 203.682861,227.126312 
	C202.595963,227.126312 201.922058,227.017090 201.294922,227.142212 
	C184.458847,230.501434 171.309937,244.561172 169.007919,261.634308 
	C167.505524,272.776855 169.760483,275.324310 181.132675,275.324585 
	C211.442856,275.325287 241.753052,275.324799 272.962921,275.324646 
M243.144989,209.724991 
	C252.303986,203.862534 257.234039,195.446274 258.407104,184.690948 
	C261.323486,157.951508 239.533020,138.804291 215.205292,146.786804 
	C192.534119,154.225769 189.028427,178.374695 195.567108,194.812759 
	C202.733200,212.828110 224.090744,219.541321 243.144989,209.724991 
z"/>
<path fill="#FBFCFD" opacity="1.000000" stroke="none" 
	d="
M272.513062,275.324707 
	C241.753052,275.324799 211.442856,275.325287 181.132675,275.324585 
	C169.760483,275.324310 167.505524,272.776855 169.007919,261.634308 
	C171.309937,244.561172 184.458847,230.501434 201.294922,227.142212 
	C201.922058,227.017090 202.595963,227.126312 203.682861,227.126312 
	C205.257645,233.388519 206.833374,239.634537 208.398315,245.883270 
	C209.968979,252.154907 211.528824,258.429260 213.957474,264.798248 
	C216.366653,255.765717 218.906342,246.763947 221.050507,237.668930 
	C221.389343,236.231705 220.118759,234.278030 219.283859,232.729401 
	C217.497192,229.415298 215.508743,226.209991 213.281189,222.411423 
	C221.846390,222.411423 229.664200,222.411423 238.166824,222.411423 
	C235.744568,226.510590 233.426331,230.106461 231.480011,233.893478 
	C230.733322,235.346329 230.274826,237.370132 230.643631,238.903152 
	C232.665207,247.306442 234.984421,255.638123 238.354385,264.232361 
	C241.473495,251.913879 244.592590,239.595413 247.811081,226.884369 
	C260.838867,228.914444 270.840088,235.336395 276.980957,246.558624 
	C280.003723,252.082581 281.684753,258.632202 282.639923,264.920197 
	C283.760376,272.296112 280.647217,275.018372 272.513062,275.324707 
z"/>
<path fill="#FAFAFC" opacity="1.000000" stroke="none" 
	d="
M242.816803,209.889023 
	C224.090744,219.541321 202.733200,212.828110 195.567108,194.812759 
	C189.028427,178.374695 192.534119,154.225769 215.205292,146.786804 
	C239.533020,138.804291 261.323486,157.951508 258.407104,184.690948 
	C257.234039,195.446274 252.303986,203.862534 242.816803,209.889023 
M213.219116,173.900818 
	C210.941803,173.900818 208.664474,173.900818 206.047226,173.900818 
	C206.047226,178.044373 205.586197,181.721451 206.130981,185.242950 
	C207.999374,197.320236 219.586212,204.427734 231.403000,201.038025 
	C242.786530,197.772598 249.793350,182.480682 244.688660,171.777283 
	C244.241241,170.839142 242.814392,170.260422 241.730881,169.753128 
	C238.214752,168.106949 234.646698,166.571686 230.788315,164.855682 
	C227.096130,170.193710 221.374664,173.435410 213.219116,173.900818 
z"/>
<path fill="#242E81" opacity="1.000000" stroke="none" 
	d="
M213.666809,173.899628 
	C221.374664,173.435410 227.096130,170.193710 230.788315,164.855682 
	C234.646698,166.571686 238.214752,168.106949 241.730881,169.753128 
	C242.814392,170.260422 244.241241,170.839142 244.688660,171.777283 
	C249.793350,182.480682 242.786530,197.772598 231.403000,201.038025 
	C219.586212,204.427734 207.999374,197.320236 206.130981,185.242950 
	C205.586197,181.721451 206.047226,178.044373 206.047226,173.900818 
	C208.664474,173.900818 210.941803,173.900818 213.666809,173.899628 
z"/>
</svg>