<?xml version="1.0" encoding="UTF-8"?>
<svg version="1.1" xmlns="http://www.w3.org/2000/svg" width="290" height="290">
<path d="M0 0 C95.7 0 191.4 0 290 0 C290 95.7 290 191.4 290 290 C194.3 290 98.6 290 0 290 C0 194.3 0 98.6 0 0 Z " fill="#0E195E" transform="translate(0,0)"/>
<path d="M0 0 C95.7 0 191.4 0 290 0 C290 95.7 290 191.4 290 290 C194.3 290 98.6 290 0 290 C0 194.3 0 98.6 0 0 Z M110 12 C108.87126465 12.30550781 108.87126465 12.30550781 107.71972656 12.6171875 C71.87427398 22.59050363 43.08086458 47.30873153 24.578125 79.109375 C6.80501568 110.68308444 2.91971618 148.48848754 12.64941406 183.32519531 C19.1372194 205.0362062 30.89469575 224.26901278 46 241 C46.66644531 241.73863281 47.33289062 242.47726563 48.01953125 243.23828125 C64.41550978 260.46268817 87.20844755 272.84940297 110 279 C110.71414062 279.20238281 111.42828125 279.40476562 112.1640625 279.61328125 C147.49776541 289.13738635 184.60277053 281.84281012 215.84765625 263.94140625 C225.01313519 258.53713897 233.11379799 252.11993137 241 245 C241.73863281 244.33355469 242.47726563 243.66710937 243.23828125 242.98046875 C267.41084478 219.97051349 282.07486368 185.16211365 283.32421875 152.1015625 C283.64760475 137.60946856 282.90702643 123.98208994 279 110 C278.69449219 108.87126465 278.69449219 108.87126465 278.3828125 107.71972656 C269.01566366 74.05292153 245.95326163 44.78064165 216 27 C210.79024396 24.06871534 205.43589459 21.48124918 200 19 C199.39220703 18.71640625 198.78441406 18.4328125 198.15820312 18.140625 C187.44646228 13.20926982 176.56151905 10.95561206 165 9 C164.04697998 8.8242041 163.09395996 8.6484082 162.11206055 8.46728516 C144.97879602 5.89467448 126.6331914 7.3521742 110 12 Z " fill="#0D195E" transform="translate(0,0)"/>
<path d="M0 0 C3.86862728 3.09490182 7.58336556 6.33858328 11.26025391 9.65820312 C11.99888672 10.32464844 12.73751953 10.99109375 13.49853516 11.67773438 C30.72294207 28.0737129 43.10965687 50.86665067 49.26025391 73.65820312 C49.56382812 74.72941406 49.56382812 74.72941406 49.87353516 75.82226562 C59.39764026 111.15596853 52.10306402 148.26097366 34.20166016 179.50585938 C28.79739288 188.67133831 22.38018527 196.77200112 15.26025391 204.65820312 C14.59380859 205.39683594 13.92736328 206.13546875 13.24072266 206.89648438 C-9.7692326 231.0690479 -44.57763245 245.7330668 -77.63818359 246.98242188 C-92.13027753 247.30580788 -105.75765615 246.56522955 -119.73974609 242.65820312 C-120.49223633 242.45453125 -121.24472656 242.25085938 -122.02001953 242.04101562 C-155.68682456 232.67386678 -184.95910444 209.61146475 -202.73974609 179.65820312 C-205.67103076 174.44844709 -208.25849691 169.09409771 -210.73974609 163.65820312 C-211.16513672 162.74651367 -211.16513672 162.74651367 -211.59912109 161.81640625 C-216.53047627 151.1046654 -218.78413403 140.21972218 -220.73974609 128.65820312 C-220.91554199 127.70518311 -221.09133789 126.75216309 -221.27246094 125.77026367 C-223.84507162 108.63699914 -222.38757189 90.29139453 -217.73974609 73.65820312 C-217.43423828 72.52946777 -217.43423828 72.52946777 -217.12255859 71.37792969 C-207.15173235 35.54142609 -182.43944187 6.74874937 -150.63427734 -11.75976562 C-103.20599745 -38.47447022 -42.91825098 -33.10113772 0 0 Z M-156.73974609 22.65820312 C-157.67302734 23.42777344 -158.60630859 24.19734375 -159.56787109 24.99023438 C-180.51822845 43.102345 -193.16053433 69.40112891 -196.73974609 96.65820312 C-198.60855099 128.44995885 -190.7793724 158.24026284 -169.73974609 182.65820312 C-169.18802734 183.34269531 -168.63630859 184.0271875 -168.06787109 184.73242188 C-152.71750468 203.33560402 -129.90939613 214.69999201 -106.73974609 219.65820312 C-106.04179932 219.83552979 -105.34385254 220.01285645 -104.62475586 220.19555664 C-78.87589295 226.56684779 -49.6810202 219.41523753 -27.05224609 206.65820312 C-21.19837118 203.11816752 -15.91608997 199.11838033 -10.73974609 194.65820312 C-10.05525391 194.10648438 -9.37076172 193.55476562 -8.66552734 192.98632812 C9.30956425 178.15422897 22.10333126 154.47439509 26.26025391 131.65820312 C26.46263672 130.6346875 26.66501953 129.61117187 26.87353516 128.55664062 C31.90685028 99.31547657 25.87469118 69.72658396 8.95947266 45.23242188 C6.80283205 42.30102954 4.57627345 39.46486954 2.26025391 36.65820312 C1.61443359 35.86027344 0.96861328 35.06234375 0.30322266 34.24023438 C-15.05374557 16.06834326 -38.34815191 2.91995933 -61.73974609 -1.34179688 C-62.76326172 -1.54417969 -63.78677734 -1.7465625 -64.84130859 -1.95507812 C-98.04327356 -7.67017046 -130.86820246 1.13512516 -156.73974609 22.65820312 Z " fill="#FCFCFD" transform="translate(229.73974609375,36.341796875)"/>
<path d="M0 0 C3.81825145 2.01325985 6.02906521 3.19984781 8.4375 6.8125 C9.20046265 11.68372309 9.14140803 16.10830161 7.25 20.6875 C5.10209779 23.20573018 2.84169306 25.53826332 0.4375 27.8125 C1.345 28.204375 2.2525 28.59625 3.1875 29 C6.80279132 31.01622016 8.43324208 32.18941838 10.4375 35.8125 C11.31833586 41.73092522 10.9027567 46.79385236 7.4375 51.8125 C2.20401035 56.90061494 -3.59066467 59.16898846 -10.76782227 59.22851562 C-11.48381592 59.21498047 -12.19980957 59.20144531 -12.9375 59.1875 C-13.6812085 59.18169922 -14.42491699 59.17589844 -15.19116211 59.16992188 C-20.80341205 59.0374794 -25.38395805 58.0722274 -30.5625 55.8125 C-30.5625 52.1825 -30.5625 48.5525 -30.5625 44.8125 C-29.7890625 45.0290625 -29.015625 45.245625 -28.21875 45.46875 C-16.76009638 48.70463472 -16.76009638 48.70463472 -5.5625 45.8125 C-3.27236347 42.3772952 -3.38407027 40.827169 -3.5625 36.8125 C-9.22471678 33.19497261 -14.96482633 33.12209957 -21.5625 32.8125 C-21.5625 29.5125 -21.5625 26.2125 -21.5625 22.8125 C-20.67046875 22.77511719 -19.7784375 22.73773438 -18.859375 22.69921875 C-17.10367188 22.60060547 -17.10367188 22.60060547 -15.3125 22.5 C-14.15234375 22.44199219 -12.9921875 22.38398438 -11.796875 22.32421875 C-8.40766857 21.78800372 -6.92427102 21.26510837 -4.5625 18.8125 C-3.74935089 15.20784252 -3.74935089 15.20784252 -3.5625 11.8125 C-7.70577024 9.8036417 -10.97788356 9.41034066 -15.5625 9.8125 C-17.57031177 10.79672146 -19.57142752 11.79484073 -21.5625 12.8125 C-23.6875 12.875 -23.6875 12.875 -25.5625 11.8125 C-29.5625 6.59027778 -29.5625 6.59027778 -29.5625 3.8125 C-28.292947 3.16415346 -27.02180294 2.51892185 -25.75 1.875 C-25.04230469 1.51535156 -24.33460937 1.15570313 -23.60546875 0.78515625 C-16.69488319 -2.50496957 -7.22479537 -2.44978694 0 0 Z " fill="#F6F6F9" transform="translate(116.5625,119.1875)"/>
<path d="M0 0 C3.3131499 2.03131812 5.63440675 3.78144239 7.4375 7.3125 C8.25870241 11.9587768 8.57297963 16.30850303 6.19140625 20.51171875 C3.82162608 23.33063431 1.51244184 25.26253877 -1.5625 27.3125 C-1.01980469 27.54324219 -0.47710937 27.77398437 0.08203125 28.01171875 C3.3601376 29.50606273 5.95040637 30.79496302 8.4375 33.4375 C9.94565096 37.77343401 10.09276129 41.77663572 9.4375 46.3125 C6.68277255 51.8219549 3.09749422 55.40745319 -2.765625 57.40234375 C-11.7831113 59.56394283 -21.18323195 59.41663129 -29.5625 55.3125 C-29.5625 53.0025 -29.5625 50.6925 -29.5625 48.3125 C-28.89605469 48.5290625 -28.22960937 48.745625 -27.54296875 48.96875 C-19.60981501 51.3653391 -11.93876941 53.00158644 -4 49.9375 C-1.51551384 48.39625793 -1.51551384 48.39625793 0.4375 46.3125 C0.794648 43.97845946 0.794648 43.97845946 0.75 41.375 C0.76675781 40.49972656 0.78351563 39.62445313 0.80078125 38.72265625 C0.62191107 36.2867334 0.62191107 36.2867334 -0.82421875 34.56640625 C-6.07163389 30.78119218 -14.32587436 30.90646435 -20.5625 30.3125 C-20.5625 28.3325 -20.5625 26.3525 -20.5625 24.3125 C-19.24185547 24.23902344 -19.24185547 24.23902344 -17.89453125 24.1640625 C-16.73308594 24.08929688 -15.57164062 24.01453125 -14.375 23.9375 C-13.22644531 23.86789063 -12.07789063 23.79828125 -10.89453125 23.7265625 C-7.71866244 23.33190588 -5.37585298 22.82461293 -2.5625 21.3125 C-1.11775951 16.97827852 -0.90738884 12.83733758 -1.5625 8.3125 C-4.29573683 5.40843587 -6.26025707 5.34897759 -10.1875 4.875 C-15.64105859 5.05260631 -20.57609805 7.25927567 -25.5625 9.3125 C-27.0625 8 -27.0625 8 -28.5625 6.3125 C-28.5625 5.3225 -28.5625 4.3325 -28.5625 3.3125 C-19.56449445 -1.73648107 -9.87375802 -4.47806126 0 0 Z " fill="#EFF0F4" transform="translate(192.5625,119.6875)"/>
<path d="M0 0 C1.134375 0.020625 2.26875 0.04125 3.4375 0.0625 C2.21183925 4.05437532 0.97896857 8.04377125 -0.2734375 12.02734375 C-0.48532715 12.70144287 -0.6972168 13.37554199 -0.91552734 14.07006836 C-2.38028703 18.58097544 -4.1099958 22.95432645 -5.90234375 27.34375 C-6.41479636 28.60386848 -6.92648625 29.86429734 -7.4375 31.125 C-7.69619873 31.7629248 -7.95489746 32.40084961 -8.22143555 33.05810547 C-10.57140524 38.93120576 -12.55972468 44.89381324 -14.484375 50.91796875 C-15.35313754 53.45185951 -16.2830007 55.71868992 -17.5625 58.0625 C-19.8725 58.0625 -22.1825 58.0625 -24.5625 58.0625 C-23.07783785 50.24717174 -20.5014903 43.05377032 -17.6875 35.625 C-17.25308594 34.46162109 -16.81867188 33.29824219 -16.37109375 32.09960938 C-14.12301424 26.10135517 -11.80822449 20.13567559 -9.41113281 14.19555664 C-7.96938994 10.57170524 -6.68935358 6.89296455 -5.39453125 3.21484375 C-4.04143117 -0.28542922 -4.073808 0.07147032 0 0 Z " fill="#ECEDF2" transform="translate(155.5625,118.9375)"/>
</svg>
