<?xml version="1.0" standalone="no"?>
<!DOCTYPE svg PUBLIC "-//W3C//DTD SVG 20010904//EN"
 "http://www.w3.org/TR/2001/REC-SVG-20010904/DTD/svg10.dtd">
<svg version="1.0" xmlns="http://www.w3.org/2000/svg"
 width="346.000000pt" height="332.000000pt" viewBox="0 0 346.000000 332.000000"
 preserveAspectRatio="xMidYMid meet">

<g transform="translate(0.000000,332.000000) scale(0.100000,-0.100000)"
fill="#000000" stroke="none">
<path d="M0 1660 l0 -1660 1730 0 1730 0 0 1660 0 1660 -1730 0 -1730 0 0
-1660z m1989 1056 c344 -95 622 -349 741 -675 55 -150 65 -211 64 -391 -1
-145 -4 -177 -27 -265 -31 -118 -115 -292 -186 -386 -159 -209 -390 -356 -651
-415 -103 -23 -347 -23 -450 0 -261 59 -492 206 -651 415 -71 94 -155 268
-186 386 -23 88 -26 120 -27 265 -1 182 12 257 66 398 140 365 467 630 853
693 28 4 120 6 205 4 128 -3 171 -8 249 -29z"/>
<path d="M1525 2595 c-241 -46 -477 -200 -609 -399 -55 -83 -113 -211 -138
-306 -32 -123 -32 -348 1 -470 46 -172 131 -318 257 -442 99 -97 137 -124 249
-179 153 -75 239 -94 420 -94 125 0 164 4 235 24 343 93 594 344 690 691 34
121 35 345 2 470 -40 150 -124 306 -226 418 -130 142 -353 261 -546 292 -88
13 -249 11 -335 -5z m714 -541 c12 -15 21 -37 21 -50 0 -18 -94 -119 -368
-395 -353 -356 -370 -372 -398 -365 -37 9 -390 358 -399 395 -9 35 23 75 65
79 30 3 44 -8 186 -149 l154 -153 333 332 c359 359 363 361 406 306z"/>
</g>
</svg>
