<?xml version="1.0" encoding="UTF-8"?>
<svg version="1.1" xmlns="http://www.w3.org/2000/svg" width="230" height="230">
<path d="M0 0 C75.9 0 151.8 0 230 0 C230 75.9 230 151.8 230 230 C154.1 230 78.2 230 0 230 C0 154.1 0 78.2 0 0 Z " fill="#3949A0" transform="translate(0,0)"/>
<path d="M0 0 C1.15483383 -0.0071553 2.30966766 -0.01431061 3.49949646 -0.02168274 C7.32233055 -0.03861133 11.14399889 -0.01914091 14.96679688 0.00219727 C17.61952283 0.00136896 20.27220802 -0.00103339 22.92492676 -0.00511169 C28.48670919 -0.00963194 34.04815524 0.00623238 39.60986328 0.03417969 C46.03796433 0.06623174 52.46545872 0.06621593 58.89360285 0.04896492 C65.07985693 0.03309528 71.26588881 0.03983604 77.45213318 0.05690193 C80.08360801 0.06209231 82.71510031 0.06159163 85.34657288 0.05535698 C89.02179791 0.04991852 92.69598671 0.07023833 96.37109375 0.09765625 C97.46316635 0.09113037 98.55523895 0.08460449 99.68040466 0.07788086 C101.18190819 0.09696754 101.18190819 0.09696754 102.71374512 0.11643982 C103.58240959 0.11924674 104.45107407 0.12205366 105.34606171 0.12494564 C108.54498687 0.81704713 109.72776906 2.04286569 111.68554688 4.63110352 C112.19170475 6.952178 112.19170475 6.952178 112.20021057 9.55821228 C112.21293503 10.54935532 112.22565948 11.54049835 112.23876953 12.56167603 C112.23224365 13.64282684 112.22571777 14.72397766 112.21899414 15.83789062 C112.2319175 17.55310158 112.2319175 17.55310158 112.24510193 19.30296326 C112.26783177 23.0883539 112.26100945 26.87300842 112.25195312 30.65844727 C112.25718572 33.2863436 112.26346085 35.91423805 112.27073669 38.54212952 C112.28258621 44.05257469 112.27688875 49.56280963 112.26196289 55.07324219 C112.24504322 61.43890496 112.26087326 67.80388192 112.29318577 74.16946977 C112.32311435 80.29806224 112.32506378 86.42634113 112.31568718 92.55499458 C112.31486608 95.16053725 112.32175955 97.76609404 112.33645821 100.37159538 C112.35385083 104.0132146 112.33940263 107.65336225 112.31665039 111.29492188 C112.33418869 112.91361176 112.33418869 112.91361176 112.3520813 114.56500244 C112.29482671 119.06232425 112.12932725 121.87031048 109.83641052 125.80116272 C105.14165874 128.52775415 100.98240224 128.31384535 95.640625 128.24633789 C94.52626572 128.2518869 93.41190643 128.25743591 92.26377869 128.26315308 C88.58101374 128.27496173 84.89947575 128.25065973 81.21679688 128.22485352 C78.65759334 128.2231427 76.09838806 128.2232078 73.53918457 128.22497559 C68.17584127 128.22332163 62.81292603 128.20519128 57.44970703 128.1730957 C51.25513402 128.13620443 45.06102299 128.12742052 38.86635447 128.13439322 C32.89957355 128.1407055 26.93292948 128.12971687 20.96617126 128.11042786 C18.43042269 128.10339356 15.89466016 128.10027384 13.35890198 128.10112 C9.81583401 128.09932352 6.27342319 128.07795316 2.73046875 128.05102539 C1.68096542 128.05395599 0.6314621 128.0568866 -0.44984436 128.05990601 C-9.44418899 127.95436837 -9.44418899 127.95436837 -13.31445312 124.63110352 C-15.45351272 121.42251412 -15.56726646 120.58915996 -15.58187866 116.900177 C-15.59040863 115.92723694 -15.5989386 114.95429688 -15.60772705 113.95187378 C-15.60682068 112.88582916 -15.60591431 111.81978455 -15.60498047 110.72143555 C-15.61169769 109.59761475 -15.61841492 108.47379395 -15.62533569 107.31591797 C-15.64437827 103.59020603 -15.64824307 99.86467363 -15.65039062 96.13891602 C-15.65681419 93.55443242 -15.66354221 90.96994957 -15.67056274 88.38546753 C-15.6825512 82.96325689 -15.68632746 77.54111776 -15.68505859 72.11889648 C-15.68385735 65.85504286 -15.70495474 59.5915339 -15.73654592 53.32776749 C-15.76586639 47.29907196 -15.77303426 41.27056333 -15.77183914 35.24178696 C-15.77420228 32.67810534 -15.78306564 30.11442129 -15.79850388 27.55078506 C-15.81806549 23.96675144 -15.81236359 20.38360803 -15.80029297 16.79956055 C-15.81153198 15.73756439 -15.822771 14.67556824 -15.83435059 13.58139038 C-15.79882325 9.43710348 -15.60194807 6.31737097 -13.99124146 2.47251892 C-9.61727467 -0.53641897 -5.18416542 -0.05550391 0 0 Z " fill="#E91D26" transform="translate(63.314453125,44.368896484375)"/>
<path d="M0 0 C0.83603256 -0.00189835 1.67206512 -0.00379669 2.53343201 -0.00575256 C5.29964546 -0.00946033 8.06559695 0.00124323 10.83178711 0.01245117 C12.75084909 0.01364301 14.66991166 0.01409613 16.588974 0.01383972 C20.61143646 0.01540455 24.63380992 0.02369474 28.65625 0.03710938 C33.82045161 0.05411061 38.98455546 0.05792338 44.14878178 0.05716419 C48.11121052 0.05743568 52.07361775 0.06291335 56.03603935 0.07016563 C57.94069697 0.07335458 59.84535703 0.07532024 61.75001717 0.07605934 C64.40760605 0.07821986 67.06508983 0.08695753 69.72265625 0.09765625 C70.91104599 0.09697647 70.91104599 0.09697647 72.1234436 0.09628296 C77.56767427 0.12844163 77.56767427 0.12844163 79.79663086 1.24291992 C79.82349024 3.38868629 79.84296174 5.53454637 79.85913086 7.68041992 C79.87073242 8.87538086 79.88233398 10.0703418 79.89428711 11.30151367 C79.79663086 14.24291992 79.79663086 14.24291992 78.79663086 15.24291992 C76.03261678 15.34342206 73.2935586 15.37908067 70.52905273 15.37231445 C69.22914146 15.37494293 69.22914146 15.37494293 67.90296936 15.37762451 C65.02375313 15.38204417 62.14459777 15.37910464 59.26538086 15.37573242 C57.27380359 15.37640543 55.2822264 15.37737543 53.29064941 15.37863159 C49.11083191 15.38010872 44.93103573 15.37795353 40.7512207 15.37329102 C35.3806056 15.36759372 30.01004046 15.37087265 24.63942719 15.37686348 C20.52520366 15.38046869 16.41099207 15.37933069 12.29676819 15.37673569 C10.315923 15.37606631 8.33507674 15.37689522 6.35423279 15.37921524 C3.5908621 15.38174111 0.82757352 15.3779021 -1.93579102 15.37231445 C-2.76284042 15.37433868 -3.58988983 15.37636292 -4.44200134 15.37844849 C-10.0891067 15.35718236 -10.0891067 15.35718236 -11.20336914 14.24291992 C-11.35463145 12.26778325 -11.42510681 10.28613857 -11.45336914 8.30541992 C-11.47915039 7.22389648 -11.50493164 6.14237305 -11.53149414 5.02807617 C-11.36907227 3.64942383 -11.36907227 3.64942383 -11.20336914 2.24291992 C-7.40980803 -0.28612082 -4.39298549 -0.03123931 0 0 Z " fill="#3949A0" transform="translate(77.203369140625,97.757080078125)"/>
<path d="M0 0 C29.7 0 59.4 0 90 0 C90 4.29 90 8.58 90 13 C86.23264412 15.51157059 83.26643037 15.28144994 78.90429688 15.25878906 C77.66728783 15.26404602 77.66728783 15.26404602 76.4052887 15.26940918 C73.67635711 15.27821949 70.94768427 15.27237982 68.21875 15.265625 C66.32450307 15.26697185 64.43025648 15.26891255 62.53601074 15.27142334 C58.56482657 15.27437365 54.59373232 15.27007992 50.62255859 15.26074219 C45.52790926 15.24934772 40.43347064 15.25590768 35.33882904 15.26788712 C31.42696541 15.2751082 27.51515187 15.27281664 23.60328674 15.26763153 C21.72457352 15.26629572 19.84585577 15.26794034 17.96714783 15.27259064 C15.34321005 15.27765993 12.7196153 15.26993999 10.09570312 15.25878906 C8.92673241 15.26486176 8.92673241 15.26486176 7.73414612 15.27105713 C3.9491425 15.24120211 2.22879101 15.15252734 -1 13 C-1.328125 10.46875 -1.328125 10.46875 -1.25 7.5 C-1.23453125 6.5203125 -1.2190625 5.540625 -1.203125 4.53125 C-1 2 -1 2 0 0 Z " fill="#3949A0" transform="translate(67,68)"/>
<path d="M0 0 C1.4616156 -0.00945648 1.4616156 -0.00945648 2.95275879 -0.019104 C4.53558655 -0.01303131 4.53558655 -0.01303131 6.15039062 -0.00683594 C7.23042358 -0.00874939 8.31045654 -0.01066284 9.42321777 -0.01263428 C11.70971916 -0.01399701 13.99622826 -0.01029445 16.28271484 -0.00195312 C19.79216817 0.00874495 23.30110956 -0.00184566 26.81054688 -0.01464844 C29.02799593 -0.01332686 31.24544466 -0.0107645 33.46289062 -0.00683594 C34.51810913 -0.0108844 35.57332764 -0.01493286 36.66052246 -0.019104 C37.63493286 -0.01279968 38.60934326 -0.00649536 39.61328125 0 C40.47328735 0.00159119 41.33329346 0.00318237 42.21936035 0.00482178 C44.30664062 0.25878906 44.30664062 0.25878906 46.30664062 2.25878906 C46.57226562 4.79003906 46.57226562 4.79003906 46.55664062 7.75878906 C46.564375 9.22832031 46.564375 9.22832031 46.57226562 10.72753906 C46.30664062 13.25878906 46.30664062 13.25878906 44.30664062 15.25878906 C42.16793823 15.4992981 42.16793823 15.4992981 39.48974609 15.48583984 C38.48885956 15.48568878 37.48797302 15.48553772 36.45675659 15.48538208 C34.831707 15.46989822 34.831707 15.46989822 33.17382812 15.45410156 C32.06685577 15.45127167 30.95988342 15.44844177 29.81936646 15.44552612 C26.27334925 15.43430425 22.72758187 15.40919597 19.18164062 15.38378906 C16.78190468 15.37376186 14.38216479 15.36463556 11.98242188 15.35644531 C6.09040912 15.33435838 0.19854272 15.30086113 -5.69335938 15.25878906 C-6.99425769 12.65699244 -6.86176016 10.66187026 -6.88085938 7.75878906 C-6.89503906 6.77910156 -6.90921875 5.79941406 -6.92382812 4.79003906 C-6.49665494 0.09837421 -4.11203302 0.0076081 0 0 Z " fill="#3949A0" transform="translate(72.693359375,128.7412109375)"/>
</svg>
