<svg version="1.1" id="Layer_1" xmlns="http://www.w3.org/2000/svg" xmlns:xlink="http://www.w3.org/1999/xlink" x="0px" y="0px"
	 width="100%" viewBox="0 0 259 247" enable-background="new 0 0 259 247" xml:space="preserve">
<path fill="#ffffff" opacity="1.000000" stroke="none" 
	d="
M125.000000,248.000000 
	C83.333336,248.000000 42.166672,248.000000 1.000005,248.000000 
	C1.000004,165.666672 1.000004,83.333351 1.000002,1.000017 
	C87.333321,1.000011 173.666641,1.000011 260.000000,1.000005 
	C260.000000,83.333321 260.000000,165.666641 260.000000,247.999969 
	C215.166672,248.000000 170.333328,248.000000 125.000000,248.000000 
M135.500000,216.924210 
	C151.165558,216.924210 166.831116,216.924133 182.496674,216.924255 
	C195.495834,216.924347 208.496109,217.027237 221.493729,216.886108 
	C229.190567,216.802551 233.569992,209.322800 229.829269,202.843887 
	C227.422836,198.675934 223.331100,198.190521 218.977142,198.193375 
	C164.813995,198.228760 110.650803,198.216309 56.487629,198.216156 
	C54.413898,198.216156 52.340168,198.216156 49.967587,198.216156 
	C49.967587,195.335068 49.967567,193.353546 49.967587,191.372025 
	C49.968048,145.541641 49.973362,99.711273 49.964153,53.880898 
	C49.962639,46.338814 46.705082,42.199108 40.749634,42.057949 
	C34.992237,41.921486 31.147270,46.471191 31.144800,53.613823 
	C31.127558,103.443939 31.122097,153.274063 31.151297,203.104156 
	C31.156704,212.330246 35.818752,216.917603 45.005772,216.920792 
	C74.837181,216.931152 104.668587,216.924362 135.500000,216.924210 
M201.405746,79.599831 
	C190.742508,79.599724 180.079285,79.592079 169.416046,79.601860 
	C160.578735,79.609970 156.092621,82.803055 156.209579,88.972641 
	C156.323761,94.996735 160.970871,98.202484 169.615814,98.211815 
	C174.812805,98.217430 180.009781,98.212852 185.312454,98.212852 
	C173.064804,110.403938 161.336594,122.077965 149.296295,134.062637 
	C148.340164,133.204941 146.954315,132.055466 145.674194,130.798309 
	C136.880951,122.162773 128.135742,113.478165 119.321175,104.864525 
	C114.542572,100.194824 109.692940,100.209198 104.876701,104.853104 
	C101.758949,107.859291 98.744286,110.972351 95.681656,114.035751 
	C88.614037,121.105118 81.469513,128.099792 74.506660,135.270859 
	C70.589981,139.304672 70.684372,145.074020 74.380600,148.714035 
	C77.926643,152.206146 83.376419,152.132996 87.396965,148.414078 
	C89.718811,146.266403 91.842758,143.906372 94.126060,141.715164 
	C100.195473,135.890549 106.303017,130.105667 112.781319,123.937538 
	C122.583389,133.836792 131.936554,143.302399 141.312759,152.745102 
	C147.860611,159.339371 152.092422,159.380386 158.609512,152.881149 
	C170.877197,140.647064 183.112015,128.380051 195.376907,116.143166 
	C196.571808,114.951012 197.881195,113.873642 199.280075,112.614624 
	C199.746124,113.594589 199.993683,113.874779 199.997147,114.157967 
	C200.064545,119.653999 200.113846,125.150314 200.145599,130.646698 
	C200.186661,137.753021 203.546310,141.837570 209.347305,141.803787 
	C215.382355,141.768631 218.714020,137.920303 218.741241,130.766479 
	C218.785629,119.103775 218.754715,107.440781 218.754913,95.777908 
	C218.755173,81.085503 217.247757,79.597397 201.405746,79.599831 
z"/>
<path fill="#3949A0" opacity="1.000000" stroke="none" 
	d="
M135.000000,216.924194 
	C104.668587,216.924362 74.837181,216.931152 45.005772,216.920792 
	C35.818752,216.917603 31.156704,212.330246 31.151297,203.104156 
	C31.122097,153.274063 31.127558,103.443939 31.144800,53.613823 
	C31.147270,46.471191 34.992237,41.921486 40.749634,42.057949 
	C46.705082,42.199108 49.962639,46.338814 49.964153,53.880898 
	C49.973362,99.711273 49.968048,145.541641 49.967587,191.372025 
	C49.967567,193.353546 49.967587,195.335068 49.967587,198.216156 
	C52.340168,198.216156 54.413898,198.216156 56.487629,198.216156 
	C110.650803,198.216309 164.813995,198.228760 218.977142,198.193375 
	C223.331100,198.190521 227.422836,198.675934 229.829269,202.843887 
	C233.569992,209.322800 229.190567,216.802551 221.493729,216.886108 
	C208.496109,217.027237 195.495834,216.924347 182.496674,216.924255 
	C166.831116,216.924133 151.165558,216.924210 135.000000,216.924194 
z"/>
<path fill="#3949A0" opacity="1.000000" stroke="none" 
	d="
M201.888123,79.600082 
	C217.247757,79.597397 218.755173,81.085503 218.754913,95.777908 
	C218.754715,107.440781 218.785629,119.103775 218.741241,130.766479 
	C218.714020,137.920303 215.382355,141.768631 209.347305,141.803787 
	C203.546310,141.837570 200.186661,137.753021 200.145599,130.646698 
	C200.113846,125.150314 200.064545,119.653999 199.997147,114.157967 
	C199.993683,113.874779 199.746124,113.594589 199.280075,112.614624 
	C197.881195,113.873642 196.571808,114.951012 195.376907,116.143166 
	C183.112015,128.380051 170.877197,140.647064 158.609512,152.881149 
	C152.092422,159.380386 147.860611,159.339371 141.312759,152.745102 
	C131.936554,143.302399 122.583389,133.836792 112.781319,123.937538 
	C106.303017,130.105667 100.195473,135.890549 94.126060,141.715164 
	C91.842758,143.906372 89.718811,146.266403 87.396965,148.414078 
	C83.376419,152.132996 77.926643,152.206146 74.380600,148.714035 
	C70.684372,145.074020 70.589981,139.304672 74.506660,135.270859 
	C81.469513,128.099792 88.614037,121.105118 95.681656,114.035751 
	C98.744286,110.972351 101.758949,107.859291 104.876701,104.853104 
	C109.692940,100.209198 114.542572,100.194824 119.321175,104.864525 
	C128.135742,113.478165 136.880951,122.162773 145.674194,130.798309 
	C146.954315,132.055466 148.340164,133.204941 149.296295,134.062637 
	C161.336594,122.077965 173.064804,110.403938 185.312454,98.212852 
	C180.009781,98.212852 174.812805,98.217430 169.615814,98.211815 
	C160.970871,98.202484 156.323761,94.996735 156.209579,88.972641 
	C156.092621,82.803055 160.578735,79.609970 169.416046,79.601860 
	C180.079285,79.592079 190.742508,79.599724 201.888123,79.600082 
z"/>
</svg>