<svg version="1.1" id="Layer_1" xmlns="http://www.w3.org/2000/svg" xmlns:xlink="http://www.w3.org/1999/xlink" x="0px" y="0px"
	 width="100%" viewBox="0 0 264 251" enable-background="new 0 0 264 251" xml:space="preserve">
<path fill="#ffffff" opacity="1.000000" stroke="none" 
	d="
M131.000000,252.000000 
	C87.333336,252.000000 44.166668,252.000000 1.000000,252.000000 
	C1.000000,168.333328 1.000000,84.666664 1.000000,1.000000 
	C89.000000,1.000000 177.000000,1.000000 265.000000,1.000000 
	C265.000000,84.666664 265.000000,168.333328 265.000000,252.000000 
	C220.500000,252.000000 176.000000,252.000000 131.000000,252.000000 
M214.270294,214.920975 
	C226.559906,214.741058 234.111542,207.150833 234.121155,194.825668 
	C234.148712,159.495712 234.115128,124.165695 234.155380,88.835754 
	C234.159958,84.819084 233.703110,81.025040 229.791794,78.929489 
	C225.716064,76.745842 221.858643,77.706894 218.060715,80.135933 
	C202.918091,89.820656 187.710236,99.403572 172.505844,108.991356 
	C170.476028,110.271347 168.327637,111.363304 165.575470,112.913315 
	C165.428955,110.432266 165.260818,108.836540 165.253281,107.240044 
	C165.221039,100.407516 165.359344,93.571899 165.200104,86.742889 
	C165.033920,79.615959 158.857758,75.794098 152.246979,78.630447 
	C150.577744,79.346634 149.029175,80.369919 147.483948,81.345230 
	C132.284058,90.938965 117.102058,100.561066 101.896591,110.145935 
	C100.471893,111.043999 98.921341,111.742409 96.710365,112.914642 
	C96.710365,110.000427 96.710487,108.183388 96.710350,106.366341 
	C96.709206,91.034462 96.774719,75.702194 96.686081,60.370827 
	C96.613098,47.746971 89.046150,40.184105 76.422577,40.018806 
	C69.091194,39.922806 61.756962,39.941460 54.425030,40.012878 
	C42.046467,40.133469 34.156715,48.070492 34.149929,60.453289 
	C34.125530,104.949051 34.129604,149.444839 34.146801,193.940613 
	C34.151947,207.244354 41.942532,214.920425 55.338032,214.920517 
	C107.999695,214.920883 160.661362,214.920624 214.270294,214.920975 
z"/>
<path fill="#3949A0" opacity="1.000000" stroke="none" 
	d="
M213.796661,214.920792 
	C160.661362,214.920624 107.999695,214.920883 55.338032,214.920517 
	C41.942532,214.920425 34.151947,207.244354 34.146801,193.940613 
	C34.129604,149.444839 34.125530,104.949051 34.149929,60.453289 
	C34.156715,48.070492 42.046467,40.133469 54.425030,40.012878 
	C61.756962,39.941460 69.091194,39.922806 76.422577,40.018806 
	C89.046150,40.184105 96.613098,47.746971 96.686081,60.370827 
	C96.774719,75.702194 96.709206,91.034462 96.710350,106.366341 
	C96.710487,108.183388 96.710365,110.000427 96.710365,112.914642 
	C98.921341,111.742409 100.471893,111.043999 101.896591,110.145935 
	C117.102058,100.561066 132.284058,90.938965 147.483948,81.345230 
	C149.029175,80.369919 150.577744,79.346634 152.246979,78.630447 
	C158.857758,75.794098 165.033920,79.615959 165.200104,86.742889 
	C165.359344,93.571899 165.221039,100.407516 165.253281,107.240044 
	C165.260818,108.836540 165.428955,110.432266 165.575470,112.913315 
	C168.327637,111.363304 170.476028,110.271347 172.505844,108.991356 
	C187.710236,99.403572 202.918091,89.820656 218.060715,80.135933 
	C221.858643,77.706894 225.716064,76.745842 229.791794,78.929489 
	C233.703110,81.025040 234.159958,84.819084 234.155380,88.835754 
	C234.115128,124.165695 234.148712,159.495712 234.121155,194.825668 
	C234.111542,207.150833 226.559906,214.741058 213.796661,214.920792 
M77.934280,76.501389 
	C77.934280,70.733536 77.934280,64.965675 77.934280,59.147202 
	C69.334831,59.147202 61.432377,59.147202 53.245979,59.147202 
	C53.245979,104.844582 53.245979,150.214462 53.245979,195.884430 
	C107.348816,195.884430 161.187759,195.884430 215.034973,195.884430 
	C215.034973,165.425552 215.034973,135.315659 215.034973,104.412178 
	C212.320343,106.106125 210.363800,107.312424 208.421539,108.541336 
	C193.383057,118.056549 178.336975,127.559830 163.318161,137.106018 
	C159.644501,139.441040 155.869110,141.036087 151.625809,138.834702 
	C147.274277,136.577194 146.747345,132.498978 146.828903,128.141388 
	C146.916153,123.479607 146.847809,118.814903 146.847565,114.151482 
	C146.847397,111.113380 146.847549,108.075272 146.847549,104.195068 
	C144.602371,105.522041 143.327271,106.231354 142.096039,107.010048 
	C126.348251,116.969765 110.597992,126.925621 94.869797,136.916199 
	C90.893806,139.441742 86.826080,141.184189 82.292946,138.468018 
	C78.097343,135.954102 77.934776,131.711761 77.934799,127.465950 
	C77.934906,110.810867 77.934486,94.155792 77.934280,76.501389 
z"/>
<path fill="#ffffff" opacity="1.000000" stroke="none" 
	d="
M77.934265,77.001053 
	C77.934486,94.155792 77.934906,110.810867 77.934799,127.465950 
	C77.934776,131.711761 78.097343,135.954102 82.292946,138.468018 
	C86.826080,141.184189 90.893806,139.441742 94.869797,136.916199 
	C110.597992,126.925621 126.348251,116.969765 142.096039,107.010048 
	C143.327271,106.231354 144.602371,105.522041 146.847549,104.195068 
	C146.847549,108.075272 146.847397,111.113380 146.847565,114.151482 
	C146.847809,118.814903 146.916153,123.479607 146.828903,128.141388 
	C146.747345,132.498978 147.274277,136.577194 151.625809,138.834702 
	C155.869110,141.036087 159.644501,139.441040 163.318161,137.106018 
	C178.336975,127.559830 193.383057,118.056549 208.421539,108.541336 
	C210.363800,107.312424 212.320343,106.106125 215.034973,104.412178 
	C215.034973,135.315659 215.034973,165.425552 215.034973,195.884430 
	C161.187759,195.884430 107.348816,195.884430 53.245979,195.884430 
	C53.245979,150.214462 53.245979,104.844582 53.245979,59.147202 
	C61.432377,59.147202 69.334831,59.147202 77.934280,59.147202 
	C77.934280,64.965675 77.934280,70.733536 77.934265,77.001053 
M133.540405,152.453415 
	C131.047440,152.465607 128.554398,152.495575 126.061508,152.486221 
	C121.167992,152.467850 118.603584,155.039261 118.454163,159.778366 
	C118.276199,165.422577 118.189888,171.088715 118.487785,176.722931 
	C118.731949,181.340683 121.259338,184.032440 126.256203,183.832993 
	C129.077301,183.720398 131.906586,183.813477 134.732178,183.813492 
	C150.070816,183.813583 150.070816,183.813538 150.070831,168.275253 
	C150.070847,152.451263 150.070847,152.451263 133.540405,152.453415 
M165.246170,171.342529 
	C165.246582,172.339310 165.231415,173.336365 165.249939,174.332809 
	C165.388901,181.809769 167.370026,183.798203 174.716873,183.816071 
	C179.368484,183.827377 184.020905,183.869781 188.671616,183.803665 
	C194.539551,183.720245 196.550323,181.826401 196.672791,176.103363 
	C196.786484,170.789627 196.768677,165.470413 196.680710,160.155746 
	C196.588089,154.561096 194.814789,152.686111 189.185776,152.503540 
	C183.875168,152.331284 178.552078,152.352844 173.239456,152.486618 
	C167.603180,152.628555 165.522583,154.739258 165.279861,160.423019 
	C165.138245,163.739670 165.249054,167.067123 165.246170,171.342529 
M103.091614,159.051117 
	C102.548492,155.101562 100.622238,152.604614 96.319290,152.609451 
	C90.346062,152.616165 84.372078,152.569733 78.399864,152.651642 
	C73.902374,152.713318 71.812523,155.180573 71.832359,159.609787 
	C71.857628,165.251633 71.741440,170.895874 71.869080,176.534943 
	C71.985458,181.676636 74.041397,183.668137 79.260910,183.779694 
	C84.402725,183.889618 89.549042,183.844635 94.692726,183.796494 
	C100.912941,183.738251 102.992050,181.697830 103.111534,175.391098 
	C103.208954,170.248840 103.128166,165.103226 103.091614,159.051117 
z"/>
<path fill="#3949A0" opacity="1.000000" stroke="none" 
	d="
M134.017670,152.453644 
	C150.070847,152.451263 150.070847,152.451263 150.070831,168.275253 
	C150.070816,183.813538 150.070816,183.813583 134.732178,183.813492 
	C131.906586,183.813477 129.077301,183.720398 126.256203,183.832993 
	C121.259338,184.032440 118.731949,181.340683 118.487785,176.722931 
	C118.189888,171.088715 118.276199,165.422577 118.454163,159.778366 
	C118.603584,155.039261 121.167992,152.467850 126.061508,152.486221 
	C128.554398,152.495575 131.047440,152.465607 134.017670,152.453644 
z"/>
<path fill="#3949A0" opacity="1.000000" stroke="none" 
	d="
M165.246246,170.866119 
	C165.249054,167.067123 165.138245,163.739670 165.279861,160.423019 
	C165.522583,154.739258 167.603180,152.628555 173.239456,152.486618 
	C178.552078,152.352844 183.875168,152.331284 189.185776,152.503540 
	C194.814789,152.686111 196.588089,154.561096 196.680710,160.155746 
	C196.768677,165.470413 196.786484,170.789627 196.672791,176.103363 
	C196.550323,181.826401 194.539551,183.720245 188.671616,183.803665 
	C184.020905,183.869781 179.368484,183.827377 174.716873,183.816071 
	C167.370026,183.798203 165.388901,181.809769 165.249939,174.332809 
	C165.231415,173.336365 165.246582,172.339310 165.246246,170.866119 
z"/>
<path fill="#3949A0" opacity="1.000000" stroke="none" 
	d="
M103.109009,159.505096 
	C103.128166,165.103226 103.208954,170.248840 103.111534,175.391098 
	C102.992050,181.697830 100.912941,183.738251 94.692726,183.796494 
	C89.549042,183.844635 84.402725,183.889618 79.260910,183.779694 
	C74.041397,183.668137 71.985458,181.676636 71.869080,176.534943 
	C71.741440,170.895874 71.857628,165.251633 71.832359,159.609787 
	C71.812523,155.180573 73.902374,152.713318 78.399864,152.651642 
	C84.372078,152.569733 90.346062,152.616165 96.319290,152.609451 
	C100.622238,152.604614 102.548492,155.101562 103.109009,159.505096 
z"/>
</svg>