<?xml version="1.0" standalone="no"?>
<!DOCTYPE svg PUBLIC "-//W3C//DTD SVG 20010904//EN"
 "http://www.w3.org/TR/2001/REC-SVG-20010904/DTD/svg10.dtd">
<svg version="1.0" xmlns="http://www.w3.org/2000/svg"
 width="225.000000pt" height="225.000000pt" viewBox="0 0 225.000000 225.000000"
 preserveAspectRatio="xMidYMid meet">

<g transform="translate(0.000000,225.000000) scale(0.100000,-0.100000)"
fill="#ffffff" stroke="#242E81">
<path d="M630 1683 c-54 -20 -81 -83 -56 -130 16 -30 454 -469 496 -497 30
-20 72 -21 108 -2 42 22 490 477 502 510 28 75 -57 149 -127 112 -15 -8 -118
-105 -228 -215 l-200 -201 -205 204 c-113 112 -215 209 -227 215 -23 12 -39
13 -63 4z"/>
<path d="M597 1100 c-31 -24 -43 -70 -27 -102 17 -32 469 -486 502 -504 15 -8
44 -14 65 -14 35 0 49 12 281 243 134 133 250 255 258 270 32 59 -14 127 -85
127 -34 0 -50 -14 -246 -210 -115 -116 -214 -210 -220 -210 -6 0 -105 94 -220
210 -196 196 -212 210 -246 210 -21 0 -47 -8 -62 -20z"/>
</g>
</svg>
