<?xml version="1.0" standalone="no"?>
<!DOCTYPE svg PUBLIC "-//W3C//DTD SVG 20010904//EN"
 "http://www.w3.org/TR/2001/REC-SVG-20010904/DTD/svg10.dtd">
<svg version="1.0" xmlns="http://www.w3.org/2000/svg"
 width="251.000000pt" height="251.000000pt" viewBox="0 0 251.000000 251.000000"
 preserveAspectRatio="xMidYMid meet">

<g transform="translate(0.000000,251.000000) scale(0.100000,-0.100000)"
fill="#242E81" stroke="none">
<path d="M395 2481 c-65 -33 -267 -213 -323 -287 -69 -91 -79 -125 -65 -223
48 -323 297 -718 734 -1162 480 -488 884 -749 1237 -800 80 -11 83 -11 137 16
95 46 308 266 367 380 27 51 28 121 2 166 -14 25 -88 80 -284 211 -146 98
-280 182 -299 189 -54 18 -123 -3 -261 -81 -68 -39 -125 -70 -128 -70 -20 0
-282 232 -402 357 -140 144 -290 319 -290 338 0 4 26 53 57 109 87 154 93 169
93 233 l0 58 -178 270 c-98 149 -189 279 -201 290 -34 29 -143 33 -196 6z
m260 -368 c87 -130 160 -245 163 -255 4 -16 -26 -74 -145 -281 -18 -32 -33
-64 -33 -70 0 -17 126 -184 209 -277 85 -96 285 -296 381 -381 77 -68 245
-197 268 -206 7 -3 68 26 135 65 150 86 202 112 221 112 22 0 496 -319 496
-333 0 -21 -123 -167 -210 -251 l-82 -79 -62 6 c-192 16 -494 179 -801 433
-148 123 -431 401 -557 549 -283 332 -457 642 -475 845 -5 64 -5 66 34 115 62
78 254 244 284 245 10 0 76 -89 174 -237z"/>
<path d="M2395 2492 c-11 -2 -166 -150 -345 -328 -179 -179 -329 -322 -333
-318 -4 4 -7 96 -7 205 0 186 -1 199 -19 209 -33 17 -89 12 -111 -10 -19 -19
-20 -33 -20 -333 0 -291 1 -315 18 -330 16 -15 55 -17 334 -17 356 0 348 -2
348 77 0 73 -13 77 -233 81 l-190 4 321 321 c345 346 354 357 313 408 -22 28
-44 37 -76 31z"/>
</g>
</svg>
