<?xml version="1.0" standalone="no"?>
<!DOCTYPE svg PUBLIC "-//W3C//DTD SVG 20010904//EN"
 "http://www.w3.org/TR/2001/REC-SVG-20010904/DTD/svg10.dtd">
<svg version="1.0" xmlns="http://www.w3.org/2000/svg"
 width="276.000000pt" height="276.000000pt" viewBox="0 0 276.000000 276.000000"
 preserveAspectRatio="xMidYMid meet">

<g transform="translate(0.000000,276.000000) scale(0.100000,-0.100000)"
fill="#ffffff" stroke="none">
<path d="M1145 2740 c-16 -5 -55 -13 -85 -20 -132 -28 -270 -84 -377 -153 -24
-15 -46 -27 -50 -27 -15 0 -132 -97 -216 -179 -79 -77 -197 -218 -197 -235 0
-3 -12 -25 -27 -49 -69 -107 -125 -245 -153 -377 -6 -30 -16 -71 -21 -91 -13
-50 -11 -408 2 -466 26 -117 75 -257 127 -363 162 -333 446 -582 790 -694 190
-61 245 -70 442 -70 242 0 385 33 591 137 162 82 271 161 385 279 113 117 172
200 251 357 88 174 127 317 140 509 l5 82 -124 0 -124 0 -12 113 c-29 280
-145 514 -348 707 -186 177 -400 275 -661 302 l-113 12 0 118 0 118 -97 -1
c-54 -1 -111 -5 -128 -9z m-45 -1380 l0 -290 -65 0 -65 0 0 221 0 221 -51 -43
-52 -43 -33 38 -34 39 93 73 c90 72 93 73 150 74 l57 0 0 -290z m410 287 c0
-2 -47 -131 -105 -287 -58 -155 -105 -284 -105 -286 0 -2 -16 -4 -35 -4 -19 0
-35 4 -35 8 0 5 45 130 100 278 55 148 102 275 105 282 4 10 75 19 75 9z m380
-192 l0 -195 40 0 c38 0 40 -2 40 -30 0 -28 -2 -30 -40 -30 l-40 0 0 -65 0
-65 -40 0 -40 0 0 65 0 65 -140 0 -140 0 0 26 c0 17 44 89 127 207 159 229
148 217 195 217 l38 0 0 -195z"/>
<path d="M1800 1540 c-6 -12 -48 -74 -94 -138 -45 -64 -85 -123 -90 -129 -5
-10 15 -13 93 -13 l100 0 3 148 c2 81 2 149 1 150 -1 2 -7 -6 -13 -18z"/>
<path d="M2742 1550 c0 -14 2 -19 5 -12 2 6 2 18 0 25 -3 6 -5 1 -5 -13z"/>
</g>
</svg>
