<svg version="1.1" id="Layer_1" xmlns="http://www.w3.org/2000/svg" xmlns:xlink="http://www.w3.org/1999/xlink" x="0px" y="0px"
	 width="100%" viewBox="0 0 326 270" enable-background="new 0 0 326 270" xml:space="preserve">
<path fill="#ffffff" opacity="1.000000" stroke="none" 
	d="
M226.000000,271.000000 
	C150.666672,271.000000 75.833336,271.000000 1.000000,271.000000 
	C1.000000,181.000000 1.000000,91.000000 1.000000,1.000000 
	C109.666664,1.000000 218.333328,1.000000 327.000000,1.000000 
	C327.000000,91.000000 327.000000,181.000000 327.000000,271.000000 
	C293.500000,271.000000 260.000000,271.000000 226.000000,271.000000 
M99.499924,241.313324 
	C101.332458,241.313293 103.164986,241.313324 104.997520,241.313278 
	C125.821869,241.312759 146.646744,241.400040 167.470352,241.276550 
	C178.760529,241.209595 186.687531,233.896149 186.805267,223.347412 
	C187.072922,199.366302 187.121475,175.382675 187.236832,151.399979 
	C187.262802,145.998093 185.627121,141.132507 181.613052,137.439621 
	C161.766495,119.181099 141.909012,100.933174 121.903488,82.849525 
	C116.063477,77.570564 108.492393,77.806534 102.900063,82.876808 
	C83.294220,100.652397 63.738827,118.483696 44.114349,136.238647 
	C39.360985,140.539169 37.127945,145.796173 37.134876,152.148178 
	C37.159775,174.971634 37.119823,197.795181 37.154766,220.618607 
	C37.174858,233.740891 44.770535,241.262573 58.017414,241.304276 
	C71.511452,241.346756 85.005737,241.313568 99.499924,241.313324 
M260.218323,41.343285 
	C236.562943,41.343414 212.907394,41.290794 189.252243,41.363380 
	C174.973282,41.407192 164.324493,49.616032 162.738022,63.382889 
	C161.525970,73.900719 162.010513,84.666740 162.487732,95.288780 
	C162.604141,97.880180 165.103760,101.225311 167.460739,102.686874 
	C173.491913,106.426834 180.493515,102.000755 180.919434,94.208351 
	C181.364288,86.068993 181.132065,77.891731 181.162949,69.730911 
	C181.193710,61.600014 182.323013,60.401291 190.313690,60.396168 
	C213.136108,60.381542 235.958527,60.386009 258.780945,60.393612 
	C267.257324,60.396439 268.241028,61.381702 268.241577,69.838821 
	C268.244995,122.147141 268.240326,174.455460 268.254700,226.763779 
	C268.255249,228.755463 268.221954,230.780914 268.550446,232.732391 
	C269.499786,238.372452 273.286682,241.602585 278.381897,241.345642 
	C283.480652,241.088547 286.773376,237.492416 287.194275,231.673615 
	C287.278229,230.512756 287.250275,229.342773 287.250305,228.177002 
	C287.252716,175.202332 287.266266,122.227646 287.244324,69.252983 
	C287.237366,52.465458 277.932251,42.566448 260.218323,41.343285 
M193.289597,132.261047 
	C193.382553,140.606903 194.181610,141.415771 202.412354,141.413467 
	C206.074539,141.412445 209.737701,141.422958 213.398590,141.343323 
	C216.558533,141.274582 218.430130,139.642944 218.490585,136.426056 
	C218.584366,131.434387 218.929428,126.386749 218.299957,121.474060 
	C218.069534,119.675766 215.607773,117.748421 213.709366,116.714767 
	C212.282242,115.937714 210.129288,116.458336 208.299561,116.461685 
	C193.480133,116.488823 193.058411,114.708191 193.289597,132.261047 
M218.589661,89.619644 
	C218.583923,79.199677 218.583923,79.199684 207.950333,79.202103 
	C207.284546,79.202255 206.618759,79.202126 205.952972,79.202141 
	C193.276443,79.202377 193.276443,79.202377 193.276932,91.715271 
	C193.277420,103.984459 193.278076,103.904533 205.298416,104.005775 
	C218.840881,104.119827 218.802872,104.502159 218.589661,89.619644 
M250.990814,103.965034 
	C254.532379,103.780769 255.945084,101.690628 255.953629,98.380371 
	C255.965652,93.720436 255.958115,89.060440 255.950745,84.400482 
	C255.945236,80.914047 254.173050,79.208244 250.703598,79.211197 
	C245.877136,79.215309 241.050537,79.186501 236.224243,79.214272 
	C232.769958,79.234138 231.030182,81.004501 231.034225,84.476280 
	C231.039444,88.969879 231.111191,93.465317 231.007538,97.956573 
	C230.909348,102.212158 233.019516,104.013290 237.100510,103.979713 
	C241.427399,103.944115 245.754807,103.972908 250.990814,103.965034 
M231.032608,164.596313 
	C231.032471,167.255310 231.172684,169.923462 231.000046,172.571213 
	C230.726089,176.772644 232.722183,178.858414 236.758026,178.956039 
	C241.407303,179.068497 246.063324,179.013168 250.714081,178.917465 
	C254.087143,178.848068 255.940735,177.093353 255.948593,173.620316 
	C255.959106,168.967163 255.926422,164.313751 255.965912,159.660904 
	C255.997467,155.941452 254.103210,154.140747 250.491135,154.063217 
	C247.168976,153.991913 243.844849,153.995651 240.521591,153.996811 
	C231.575195,153.999954 231.033066,154.558136 231.032608,164.596313 
M231.037674,122.858757 
	C231.037766,127.015533 231.161743,131.177017 231.003738,135.327789 
	C230.839752,139.636124 232.917892,141.377975 237.016205,141.328156 
	C241.504883,141.273560 245.994705,141.300690 250.483963,141.312988 
	C254.168503,141.323074 255.999527,139.554825 255.963272,135.823456 
	C255.919678,131.334534 255.894211,126.844017 255.966599,122.355896 
	C256.025787,118.686256 254.358902,116.676407 250.666092,116.620979 
	C245.845459,116.548607 241.020981,116.519753 236.201874,116.632011 
	C232.873611,116.709549 230.907272,118.368713 231.037674,122.858757 
M215.506516,154.510040 
	C210.442993,154.510040 205.379456,154.510040 200.389862,154.510040 
	C200.389862,162.774063 200.389862,170.664612 200.389862,178.980972 
	C204.909317,178.980972 209.047562,179.080963 213.178421,178.949417 
	C216.499130,178.843674 218.476151,177.022629 218.544968,173.616226 
	C218.639191,168.953613 218.765839,164.275040 218.464783,159.630112 
	C218.360306,158.018219 217.022720,156.486237 215.506516,154.510040 
z"/>
<path fill="#3949A0" opacity="1.000000" stroke="none" 
	d="
M98.999924,241.313416 
	C85.005737,241.313568 71.511452,241.346756 58.017414,241.304276 
	C44.770535,241.262573 37.174858,233.740891 37.154766,220.618607 
	C37.119823,197.795181 37.159775,174.971634 37.134876,152.148178 
	C37.127945,145.796173 39.360985,140.539169 44.114349,136.238647 
	C63.738827,118.483696 83.294220,100.652397 102.900063,82.876808 
	C108.492393,77.806534 116.063477,77.570564 121.903488,82.849525 
	C141.909012,100.933174 161.766495,119.181099 181.613052,137.439621 
	C185.627121,141.132507 187.262802,145.998093 187.236832,151.399979 
	C187.121475,175.382675 187.072922,199.366302 186.805267,223.347412 
	C186.687531,233.896149 178.760529,241.209595 167.470352,241.276550 
	C146.646744,241.400040 125.821869,241.312759 104.997520,241.313278 
	C103.164986,241.313324 101.332458,241.313293 98.999924,241.313416 
M95.956123,114.462257 
	C83.707710,125.489052 71.370468,136.420410 59.307899,147.646881 
	C57.525772,149.305496 56.131191,152.349304 56.102184,154.770737 
	C55.852734,175.593735 56.074684,196.422134 55.862865,217.245956 
	C55.819038,221.554352 56.862984,222.925659 61.382153,222.899750 
	C95.369019,222.704941 129.357513,222.796158 163.345505,222.783356 
	C164.791458,222.782806 166.237350,222.638809 168.239548,222.531952 
	C168.239548,198.772614 168.273056,175.312637 168.145020,151.853561 
	C168.138306,150.623505 166.999420,149.136414 165.983444,148.214355 
	C149.099380,132.891388 132.109207,117.685135 115.261864,102.322166 
	C112.790268,100.068329 111.193115,100.469200 109.026794,102.547470 
	C104.945023,106.463348 100.663902,110.171432 95.956123,114.462257 
z"/>
<path fill="#3949A0" opacity="1.000000" stroke="none" 
	d="
M260.680237,41.344212 
	C277.932251,42.566448 287.237366,52.465458 287.244324,69.252983 
	C287.266266,122.227646 287.252716,175.202332 287.250305,228.177002 
	C287.250275,229.342773 287.278229,230.512756 287.194275,231.673615 
	C286.773376,237.492416 283.480652,241.088547 278.381897,241.345642 
	C273.286682,241.602585 269.499786,238.372452 268.550446,232.732391 
	C268.221954,230.780914 268.255249,228.755463 268.254700,226.763779 
	C268.240326,174.455460 268.244995,122.147141 268.241577,69.838821 
	C268.241028,61.381702 267.257324,60.396439 258.780945,60.393612 
	C235.958527,60.386009 213.136108,60.381542 190.313690,60.396168 
	C182.323013,60.401291 181.193710,61.600014 181.162949,69.730911 
	C181.132065,77.891731 181.364288,86.068993 180.919434,94.208351 
	C180.493515,102.000755 173.491913,106.426834 167.460739,102.686874 
	C165.103760,101.225311 162.604141,97.880180 162.487732,95.288780 
	C162.010513,84.666740 161.525970,73.900719 162.738022,63.382889 
	C164.324493,49.616032 174.973282,41.407192 189.252243,41.363380 
	C212.907394,41.290794 236.562943,41.343414 260.680237,41.344212 
z"/>
<path fill="#3949A0" opacity="1.000000" stroke="none" 
	d="
M193.289612,131.796265 
	C193.058411,114.708191 193.480133,116.488823 208.299561,116.461685 
	C210.129288,116.458336 212.282242,115.937714 213.709366,116.714767 
	C215.607773,117.748421 218.069534,119.675766 218.299957,121.474060 
	C218.929428,126.386749 218.584366,131.434387 218.490585,136.426056 
	C218.430130,139.642944 216.558533,141.274582 213.398590,141.343323 
	C209.737701,141.422958 206.074539,141.412445 202.412354,141.413467 
	C194.181610,141.415771 193.382553,140.606903 193.289612,131.796265 
z"/>
<path fill="#3949A0" opacity="1.000000" stroke="none" 
	d="
M218.589478,90.089378 
	C218.802872,104.502159 218.840881,104.119827 205.298416,104.005775 
	C193.278076,103.904533 193.277420,103.984459 193.276932,91.715271 
	C193.276443,79.202377 193.276443,79.202377 205.952972,79.202141 
	C206.618759,79.202126 207.284546,79.202255 207.950333,79.202103 
	C218.583923,79.199684 218.583923,79.199677 218.589478,90.089378 
z"/>
<path fill="#3949A0" opacity="1.000000" stroke="none" 
	d="
M250.536407,103.969307 
	C245.754807,103.972908 241.427399,103.944115 237.100510,103.979713 
	C233.019516,104.013290 230.909348,102.212158 231.007538,97.956573 
	C231.111191,93.465317 231.039444,88.969879 231.034225,84.476280 
	C231.030182,81.004501 232.769958,79.234138 236.224243,79.214272 
	C241.050537,79.186501 245.877136,79.215309 250.703598,79.211197 
	C254.173050,79.208244 255.945236,80.914047 255.950745,84.400482 
	C255.958115,89.060440 255.965652,93.720436 255.953629,98.380371 
	C255.945084,101.690628 254.532379,103.780769 250.536407,103.969307 
z"/>
<path fill="#3949A0" opacity="1.000000" stroke="none" 
	d="
M231.032608,164.123291 
	C231.033066,154.558136 231.575195,153.999954 240.521591,153.996811 
	C243.844849,153.995651 247.168976,153.991913 250.491135,154.063217 
	C254.103210,154.140747 255.997467,155.941452 255.965912,159.660904 
	C255.926422,164.313751 255.959106,168.967163 255.948593,173.620316 
	C255.940735,177.093353 254.087143,178.848068 250.714081,178.917465 
	C246.063324,179.013168 241.407303,179.068497 236.758026,178.956039 
	C232.722183,178.858414 230.726089,176.772644 231.000046,172.571213 
	C231.172684,169.923462 231.032471,167.255310 231.032608,164.123291 
z"/>
<path fill="#3949A0" opacity="1.000000" stroke="none" 
	d="
M231.038910,122.399292 
	C230.907272,118.368713 232.873611,116.709549 236.201874,116.632011 
	C241.020981,116.519753 245.845459,116.548607 250.666092,116.620979 
	C254.358902,116.676407 256.025787,118.686256 255.966599,122.355896 
	C255.894211,126.844017 255.919678,131.334534 255.963272,135.823456 
	C255.999527,139.554825 254.168503,141.323074 250.483963,141.312988 
	C245.994705,141.300690 241.504883,141.273560 237.016205,141.328156 
	C232.917892,141.377975 230.839752,139.636124 231.003738,135.327789 
	C231.161743,131.177017 231.037766,127.015533 231.038910,122.399292 
z"/>
<path fill="#3949A0" opacity="1.000000" stroke="none" 
	d="
M215.877426,154.713898 
	C217.022720,156.486237 218.360306,158.018219 218.464783,159.630112 
	C218.765839,164.275040 218.639191,168.953613 218.544968,173.616226 
	C218.476151,177.022629 216.499130,178.843674 213.178421,178.949417 
	C209.047562,179.080963 204.909317,178.980972 200.389862,178.980972 
	C200.389862,170.664612 200.389862,162.774063 200.389862,154.510040 
	C205.379456,154.510040 210.442993,154.510040 215.877426,154.713898 
z"/>
<path fill="#ffffff" opacity="1.000000" stroke="none" 
	d="
M96.210892,114.214081 
	C100.663902,110.171432 104.945023,106.463348 109.026794,102.547470 
	C111.193115,100.469200 112.790268,100.068329 115.261864,102.322166 
	C132.109207,117.685135 149.099380,132.891388 165.983444,148.214355 
	C166.999420,149.136414 168.138306,150.623505 168.145020,151.853561 
	C168.273056,175.312637 168.239548,198.772614 168.239548,222.531952 
	C166.237350,222.638809 164.791458,222.782806 163.345505,222.783356 
	C129.357513,222.796158 95.369019,222.704941 61.382153,222.899750 
	C56.862984,222.925659 55.819038,221.554352 55.862865,217.245956 
	C56.074684,196.422134 55.852734,175.593735 56.102184,154.770737 
	C56.131191,152.349304 57.525772,149.305496 59.307899,147.646881 
	C71.370468,136.420410 83.707710,125.489052 96.210892,114.214081 
M119.361954,153.994644 
	C113.205437,153.995773 107.048378,154.047806 100.892586,153.981476 
	C96.209892,153.931030 93.560837,156.257416 93.446442,160.807648 
	C93.245850,168.786606 93.267509,176.778320 93.472878,184.757568 
	C93.590813,189.339340 96.355560,191.640503 100.934113,191.653275 
	C108.421692,191.674149 115.911087,191.760101 123.396408,191.629196 
	C128.826370,191.534271 130.933640,189.366852 131.014725,183.982361 
	C131.112411,177.494507 131.046295,171.004120 131.042786,164.514832 
	C131.037735,155.197098 129.858368,154.044037 119.361954,153.994644 
z"/>
<path fill="#3949A0" opacity="1.000000" stroke="none" 
	d="
M119.837418,153.994720 
	C129.858368,154.044037 131.037735,155.197098 131.042786,164.514832 
	C131.046295,171.004120 131.112411,177.494507 131.014725,183.982361 
	C130.933640,189.366852 128.826370,191.534271 123.396408,191.629196 
	C115.911087,191.760101 108.421692,191.674149 100.934113,191.653275 
	C96.355560,191.640503 93.590813,189.339340 93.472878,184.757568 
	C93.267509,176.778320 93.245850,168.786606 93.446442,160.807648 
	C93.560837,156.257416 96.209892,153.931030 100.892586,153.981476 
	C107.048378,154.047806 113.205437,153.995773 119.837418,153.994720 
z"/>
</svg>