<svg version="1.1" id="Layer_1" xmlns="http://www.w3.org/2000/svg" xmlns:xlink="http://www.w3.org/1999/xlink" x="0px" y="0px"
	 width="100%" viewBox="0 0 278 238" enable-background="new 0 0 278 238" xml:space="preserve">
<path fill="#ffffff" opacity="1.000000" stroke="none" 
	d="
M198.000000,239.000000 
	C132.000015,239.000000 66.500015,239.000000 1.000018,239.000000 
	C1.000012,159.666687 1.000012,80.333366 1.000006,1.000039 
	C93.666634,1.000026 186.333267,1.000026 278.999939,1.000013 
	C278.999939,80.333298 278.999939,159.666595 278.999969,238.999939 
	C252.166672,239.000000 225.333328,239.000000 198.000000,239.000000 
M163.500000,210.922226 
	C181.160126,210.922699 198.820557,210.985168 216.480301,210.903259 
	C229.696716,210.841980 240.982422,200.089844 241.058304,186.915085 
	C241.254044,152.928848 241.267426,118.939873 241.057190,84.953819 
	C240.976654,71.931831 229.806427,61.348289 216.831238,61.222675 
	C210.001083,61.156555 203.169617,61.235573 196.339066,61.195580 
	C194.759598,61.186337 193.181442,60.958317 191.250198,60.802536 
	C191.250198,56.629539 191.321228,52.989384 191.237778,49.352776 
	C190.897232,34.513214 180.513840,23.683325 165.745316,23.413290 
	C149.423508,23.114855 133.088165,23.126976 116.765961,23.414734 
	C103.484146,23.648891 93.726990,32.311562 91.714111,45.368042 
	C90.940170,50.388206 91.035561,55.542404 90.700752,61.212898 
	C82.673615,61.212898 74.888542,61.207932 67.103477,61.213963 
	C52.177731,61.225525 41.188812,72.039528 41.158806,86.992088 
	C41.093285,119.646515 41.079700,152.301315 41.165848,184.955643 
	C41.205788,200.095078 52.319061,210.915253 67.535225,210.919769 
	C99.190147,210.929169 130.845078,210.922348 163.500000,210.922226 
z"/>
<path fill="#3949A0" opacity="1.000000" stroke="none" 
	d="
M163.000000,210.922211 
	C130.845078,210.922348 99.190147,210.929169 67.535225,210.919769 
	C52.319061,210.915253 41.205788,200.095078 41.165848,184.955643 
	C41.079700,152.301315 41.093285,119.646515 41.158806,86.992088 
	C41.188812,72.039528 52.177731,61.225525 67.103477,61.213963 
	C74.888542,61.207932 82.673615,61.212898 90.700752,61.212898 
	C91.035561,55.542404 90.940170,50.388206 91.714111,45.368042 
	C93.726990,32.311562 103.484146,23.648891 116.765961,23.414734 
	C133.088165,23.126976 149.423508,23.114855 165.745316,23.413290 
	C180.513840,23.683325 190.897232,34.513214 191.237778,49.352776 
	C191.321228,52.989384 191.250198,56.629539 191.250198,60.802536 
	C193.181442,60.958317 194.759598,61.186337 196.339066,61.195580 
	C203.169617,61.235573 210.001083,61.156555 216.831238,61.222675 
	C229.806427,61.348289 240.976654,71.931831 241.057190,84.953819 
	C241.267426,118.939873 241.254044,152.928848 241.058304,186.915085 
	C240.982422,200.089844 229.696716,210.841980 216.480301,210.903259 
	C198.820557,210.985168 181.160126,210.922699 163.000000,210.922211 
M125.499954,192.224808 
	C154.821976,192.224197 184.144012,192.238373 213.466003,192.212906 
	C221.068375,192.206314 222.463333,190.761536 222.477203,183.085739 
	C222.498901,171.090408 222.363617,159.093124 222.553452,147.100754 
	C222.611099,143.459305 221.616638,142.166443 217.792267,142.213837 
	C201.967453,142.409988 186.138794,142.287460 170.311600,142.315445 
	C169.030930,142.317703 167.750702,142.573227 166.385651,142.720184 
	C166.272018,144.026459 166.013245,145.026382 166.128372,145.981216 
	C167.378006,156.346588 160.413544,161.606064 150.537811,161.072281 
	C143.893097,160.713150 137.212982,161.044830 130.549271,160.993576 
	C120.720337,160.917984 116.369774,156.808212 116.376953,147.063278 
	C116.379677,143.368988 115.338699,142.172241 111.568069,142.217026 
	C95.743065,142.404999 79.914513,142.285858 64.087334,142.315735 
	C62.821247,142.318130 61.555691,142.598785 59.960354,142.789551 
	C59.960354,156.465302 59.949741,169.778015 59.964508,183.090683 
	C59.972775,190.547058 61.584858,192.200577 69.021324,192.212524 
	C87.514160,192.242233 106.007065,192.223938 125.499954,192.224808 
M149.500015,79.822533 
	C124.007233,79.822548 98.514442,79.822365 73.021660,79.822647 
	C59.996468,79.822792 59.964874,79.854782 59.964539,92.954491 
	C59.964279,102.901176 59.964489,112.847870 59.964489,122.895187 
	C114.439407,122.895187 168.283371,122.895187 222.476181,122.895187 
	C222.476181,111.301872 222.493774,100.151901 222.470108,89.002014 
	C222.453873,81.354500 220.995422,79.842239 213.482224,79.832390 
	C192.488205,79.804848 171.494095,79.822578 149.500015,79.822533 
M131.500107,61.227661 
	C144.921844,61.227661 158.343597,61.227661 172.245544,61.227661 
	C172.245544,56.596096 172.211456,52.641262 172.254929,48.687283 
	C172.300369,44.556747 170.110291,42.387852 166.182281,42.365105 
	C149.538864,42.268719 132.894318,42.282845 116.250748,42.368626 
	C112.872200,42.386040 110.401642,44.111046 110.223679,47.733181 
	C110.013947,52.002140 110.174492,56.289295 110.174492,61.227779 
	C117.288979,61.227779 123.894577,61.227779 131.500107,61.227661 
z"/>
<path fill="#ffffff" opacity="1.000000" stroke="none" 
	d="
M124.999954,192.224854 
	C106.007065,192.223938 87.514160,192.242233 69.021324,192.212524 
	C61.584858,192.200577 59.972775,190.547058 59.964508,183.090683 
	C59.949741,169.778015 59.960354,156.465302 59.960354,142.789551 
	C61.555691,142.598785 62.821247,142.318130 64.087334,142.315735 
	C79.914513,142.285858 95.743065,142.404999 111.568069,142.217026 
	C115.338699,142.172241 116.379677,143.368988 116.376953,147.063278 
	C116.369774,156.808212 120.720337,160.917984 130.549271,160.993576 
	C137.212982,161.044830 143.893097,160.713150 150.537811,161.072281 
	C160.413544,161.606064 167.378006,156.346588 166.128372,145.981216 
	C166.013245,145.026382 166.272018,144.026459 166.385651,142.720184 
	C167.750702,142.573227 169.030930,142.317703 170.311600,142.315445 
	C186.138794,142.287460 201.967453,142.409988 217.792267,142.213837 
	C221.616638,142.166443 222.611099,143.459305 222.553452,147.100754 
	C222.363617,159.093124 222.498901,171.090408 222.477203,183.085739 
	C222.463333,190.761536 221.068375,192.206314 213.466003,192.212906 
	C184.144012,192.238373 154.821976,192.224197 124.999954,192.224854 
z"/>
<path fill="#ffffff" opacity="1.000000" stroke="none" 
	d="
M150.000031,79.822495 
	C171.494095,79.822578 192.488205,79.804848 213.482224,79.832390 
	C220.995422,79.842239 222.453873,81.354500 222.470108,89.002014 
	C222.493774,100.151901 222.476181,111.301872 222.476181,122.895187 
	C168.283371,122.895187 114.439407,122.895187 59.964489,122.895187 
	C59.964489,112.847870 59.964279,102.901176 59.964539,92.954491 
	C59.964874,79.854782 59.996468,79.822792 73.021660,79.822647 
	C98.514442,79.822365 124.007233,79.822548 150.000031,79.822495 
z"/>
<path fill="#ffffff" opacity="1.000000" stroke="none" 
	d="
M131.000153,61.227722 
	C123.894577,61.227779 117.288979,61.227779 110.174492,61.227779 
	C110.174492,56.289295 110.013947,52.002140 110.223679,47.733181 
	C110.401642,44.111046 112.872200,42.386040 116.250748,42.368626 
	C132.894318,42.282845 149.538864,42.268719 166.182281,42.365105 
	C170.110291,42.387852 172.300369,44.556747 172.254929,48.687283 
	C172.211456,52.641262 172.245544,56.596096 172.245544,61.227661 
	C158.343597,61.227661 144.921844,61.227661 131.000153,61.227722 
z"/>
</svg>