<svg version="1.1" id="Layer_1" xmlns="http://www.w3.org/2000/svg" xmlns:xlink="http://www.w3.org/1999/xlink" x="0px" y="0px"
	 width="100%" viewBox="0 0 225 225" enable-background="new 0 0 225 225" xml:space="preserve">
<path fill="#ffffff" opacity="1.000000" stroke="none" 
	d="
M226.000000,85.000000 
	C226.000000,132.333328 226.000000,179.166672 226.000000,226.000000 
	C151.000000,226.000000 76.000000,226.000000 1.000000,226.000000 
	C1.000000,151.000000 1.000000,76.000000 1.000000,1.000000 
	C76.000000,1.000000 151.000000,1.000000 226.000000,1.000000 
	C226.000000,28.833334 226.000000,56.666668 226.000000,85.000000 
M157.011948,210.943039 
	C164.297729,207.397598 167.135101,201.375000 167.127548,193.499924 
	C167.076447,140.175583 167.121613,86.851143 167.085327,33.526775 
	C167.076950,21.214754 160.566742,14.755414 148.229523,14.731370 
	C125.066826,14.686230 101.903915,14.685449 78.741219,14.731706 
	C66.424355,14.756304 60.004967,21.209631 59.998623,33.588890 
	C59.971291,86.913269 59.968662,140.237686 60.000679,193.562057 
	C60.008076,205.884109 66.462875,212.248505 78.898735,212.270111 
	C102.061447,212.310364 125.224403,212.316116 148.386902,212.233887 
	C151.006699,212.224594 153.624161,211.557571 157.011948,210.943039 
z"/>
<path fill="#242E81" opacity="1.000000" stroke="#242E81" stroke-width="10"
	d="
M156.627319,211.069290 
	C153.624161,211.557571 151.006699,212.224594 148.386902,212.233887 
	C125.224403,212.316116 102.061447,212.310364 78.898735,212.270111 
	C66.462875,212.248505 60.008076,205.884109 60.000679,193.562057 
	C59.968662,140.237686 59.971291,86.913269 59.998623,33.588890 
	C60.004967,21.209631 66.424355,14.756304 78.741219,14.731706 
	C101.903915,14.685449 125.066826,14.686230 148.229523,14.731370 
	C160.566742,14.755414 167.076950,21.214754 167.085327,33.526775 
	C167.121613,86.851143 167.076447,140.175583 167.127548,193.499924 
	C167.135101,201.375000 164.297729,207.397598 156.627319,211.069290 
M156.096939,40.541817 
	C156.096939,25.533653 155.747787,25.134979 142.992645,25.698517 
	C142.700165,25.711439 142.419525,25.992674 142.135620,26.152882 
	C139.095459,34.834774 137.536819,35.949024 128.420090,35.950127 
	C119.261475,35.951233 110.089409,35.642723 100.948273,36.042480 
	C92.851585,36.396561 86.133148,35.333809 84.940765,25.633129 
	C83.518875,25.633129 82.698196,25.638523 81.877602,25.632313 
	C71.580246,25.554392 71.002457,26.113766 71.002403,36.183918 
	C71.002136,88.138260 71.001015,140.092606 71.003609,192.046951 
	C71.004021,200.292389 72.042755,201.361496 80.110947,201.364426 
	C102.258156,201.372513 124.405357,201.370087 146.552567,201.365768 
	C154.983643,201.364136 156.094498,200.265427 156.095123,191.897354 
	C156.098785,141.774734 156.096939,91.652107 156.096939,40.541817 
M109.444870,29.044296 
	C111.775658,29.043722 114.138695,29.271887 116.424156,28.949743 
	C117.635872,28.778948 118.712875,27.652460 119.850685,26.957397 
	C118.832314,26.107151 117.839203,24.558638 116.791435,24.520718 
	C110.306961,24.286043 103.807449,24.296013 97.320396,24.483215 
	C96.318420,24.512131 95.354858,25.871981 94.373528,26.616325 
	C95.409897,27.421932 96.396881,28.833105 97.491661,28.922369 
	C101.130417,29.219057 104.807907,29.040581 109.444870,29.044296 
z"/>
<path fill="#ffffff" opacity="1.000000" stroke="none" 
	d="
M156.096939,41.035652 
	C156.096939,91.652107 156.098785,141.774734 156.095123,191.897354 
	C156.094498,200.265427 154.983643,201.364136 146.552567,201.365768 
	C124.405357,201.370087 102.258156,201.372513 80.110947,201.364426 
	C72.042755,201.361496 71.004021,200.292389 71.003609,192.046951 
	C71.001015,140.092606 71.002136,88.138260 71.002403,36.183918 
	C71.002457,26.113766 71.580246,25.554392 81.877602,25.632313 
	C82.698196,25.638523 83.518875,25.633129 84.940765,25.633129 
	C86.133148,35.333809 92.851585,36.396561 100.948273,36.042480 
	C110.089409,35.642723 119.261475,35.951233 128.420090,35.950127 
	C137.536819,35.949024 139.095459,34.834774 142.134491,26.150818 
	C142.419525,25.992674 142.700165,25.711439 142.992645,25.698517 
	C155.747787,25.134979 156.096939,25.533653 156.096939,41.035652 
z"/>
<path fill="#ffffff" opacity="1.000000" stroke="none" 
	d="
M108.957710,29.044296 
	C104.807907,29.040581 101.130417,29.219057 97.491661,28.922369 
	C96.396881,28.833105 95.409897,27.421932 94.373528,26.616325 
	C95.354858,25.871981 96.318420,24.512131 97.320396,24.483215 
	C103.807449,24.296013 110.306961,24.286043 116.791435,24.520718 
	C117.839203,24.558638 118.832314,26.107151 119.850685,26.957397 
	C118.712875,27.652460 117.635872,28.778948 116.424156,28.949743 
	C114.138695,29.271887 111.775658,29.043722 108.957710,29.044296 
z"/>
</svg>