<svg version="1.1" id="Layer_1" xmlns="http://www.w3.org/2000/svg" xmlns:xlink="http://www.w3.org/1999/xlink" x="0px" y="0px"
	 width="100%" viewBox="0 0 199 200" enable-background="new 0 0 199 200" xml:space="preserve">
<path fill="#ffffff" opacity="1.000000" stroke="none" 
	d="
M89.000000,1.000000 
	C96.354256,1.000000 103.708504,1.000000 111.713112,1.353088 
	C154.553055,7.056205 187.840347,37.106327 197.550583,78.606735 
	C198.361481,82.072456 199.183273,85.535637 200.000000,89.000000 
	C200.000000,97.020897 200.000000,105.041801 199.650146,113.704132 
	C191.338898,158.576904 165.964905,186.904526 122.352898,198.548492 
	C118.927902,199.462906 115.452156,200.187302 112.000000,201.000000 
	C104.312424,201.000000 96.624847,201.000000 88.295837,200.650146 
	C43.415485,192.338531 15.095730,166.954025 3.435485,123.341820 
	C2.604319,120.233055 1.810945,117.114174 1.000000,114.000000 
	C1.000000,105.645767 1.000000,97.291534 1.349862,88.295868 
	C9.661099,43.423084 35.035118,15.095469 78.647110,3.451505 
	C82.072105,2.537065 85.547844,1.812701 89.000000,1.000000 
M79.955589,73.409477 
	C66.153000,84.694138 62.292233,101.813004 70.183456,116.739624 
	C77.725105,131.005005 94.629272,138.248627 110.085793,133.382919 
	C124.088638,128.974808 132.537430,119.265816 134.296341,104.644844 
	C135.952744,90.875862 130.643356,79.606880 118.962639,72.229996 
	C106.270821,64.214554 93.199951,64.722527 79.955589,73.409477 
z"/>
<path fill="#ffffff" opacity="1.000000" stroke="none" 
	d="
M200.000000,88.531342 
	C199.183273,85.535637 198.361481,82.072456 197.550583,78.606735 
	C187.840347,37.106327 154.553055,7.056205 112.181732,1.353088 
	C141.260239,1.000000 170.520477,1.000000 200.000000,1.000000 
	C200.000000,30.020527 200.000000,59.041603 200.000000,88.531342 
z"/>
<path fill="#FDFEFE" opacity="1.000000" stroke="none" 
	d="
M88.531342,1.000000 
	C85.547844,1.812701 82.072105,2.537065 78.647110,3.451505 
	C35.035118,15.095469 9.661099,43.423084 1.349862,87.827209 
	C1.000000,59.072674 1.000000,30.145346 1.000000,1.000000 
	C30.020531,1.000000 59.041607,1.000000 88.531342,1.000000 
z"/>
<path fill="#ffffff" opacity="1.000000" stroke="none" 
	d="
M112.468658,201.000000 
	C115.452156,200.187302 118.927902,199.462906 122.352898,198.548492 
	C165.964905,186.904526 191.338898,158.576904 199.650146,114.172791 
	C200.000000,142.927322 200.000000,171.854645 200.000000,201.000000 
	C170.979477,201.000000 141.958389,201.000000 112.468658,201.000000 
z"/>
<path fill="#ffffff" opacity="1.000000" stroke="none" 
	d="
M1.000000,114.468658 
	C1.810945,117.114174 2.604319,120.233055 3.435485,123.341820 
	C15.095730,166.954025 43.415485,192.338531 87.827202,200.650146 
	C59.073097,201.000000 30.146193,201.000000 1.000000,201.000000 
	C1.000000,172.312805 1.000000,143.625061 1.000000,114.468658 
z"/>
<path fill="#242E81" opacity="1.000000" stroke="none" 
	d="
M80.259186,73.212212 
	C93.199951,64.722527 106.270821,64.214554 118.962639,72.229996 
	C130.643356,79.606880 135.952744,90.875862 134.296341,104.644844 
	C132.537430,119.265816 124.088638,128.974808 110.085793,133.382919 
	C94.629272,138.248627 77.725105,131.005005 70.183456,116.739624 
	C62.292233,101.813004 66.153000,84.694138 80.259186,73.212212 
M97.905327,110.441261 
	C100.524414,112.214622 103.121071,114.022270 105.767761,115.753448 
	C109.913719,118.465294 111.287895,117.976944 112.135529,113.209511 
	C113.359306,106.326500 114.415627,99.412498 115.444206,92.496956 
	C115.669464,90.982491 115.477180,89.405914 115.477180,86.428345 
	C102.836639,91.740883 91.191742,96.634972 79.546837,101.529068 
	C85.046906,105.576683 89.759132,106.414391 94.711723,102.348152 
	C98.322586,99.383522 102.506104,97.116394 106.434326,94.538322 
	C106.689743,94.875412 106.945160,95.212502 107.200569,95.549599 
	C104.007820,98.785400 100.835884,102.042130 97.613312,105.247955 
	C96.063904,106.789299 94.694283,108.254417 97.905327,110.441261 
z"/>
<path fill="#ffffff" opacity="1.000000" stroke="none" 
	d="
M97.591476,110.242889 
	C94.694283,108.254417 96.063904,106.789299 97.613312,105.247955 
	C100.835884,102.042130 104.007820,98.785400 107.200569,95.549599 
	C106.945160,95.212502 106.689743,94.875412 106.434326,94.538322 
	C102.506104,97.116394 98.322586,99.383522 94.711723,102.348152 
	C89.759132,106.414391 85.046906,105.576683 79.546837,101.529068 
	C91.191742,96.634972 102.836639,91.740883 115.477180,86.428345 
	C115.477180,89.405914 115.669464,90.982491 115.444206,92.496956 
	C114.415627,99.412498 113.359306,106.326500 112.135529,113.209511 
	C111.287895,117.976944 109.913719,118.465294 105.767761,115.753448 
	C103.121071,114.022270 100.524414,112.214622 97.591476,110.242889 
z"/>
</svg>