<svg version="1.1" id="Layer_1" xmlns="http://www.w3.org/2000/svg" xmlns:xlink="http://www.w3.org/1999/xlink" x="0px" y="0px"
	 width="100%" viewBox="0 0 200 200" enable-background="new 0 0 200 200" xml:space="preserve">
<path class='filler' fill="#FFFFFF" opacity="1.000000" stroke="none" 
	d="
M89.000000,1.000000 
	C96.687576,1.000000 104.375153,1.000000 112.698059,1.362062 
	C156.038589,7.687871 188.907135,37.540680 198.590408,79.145142 
	C199.356949,82.438622 200.195114,85.715439 201.000000,89.000000 
	C201.000000,97.020897 201.000000,105.041801 200.641571,113.688995 
	C200.145508,114.963226 199.999908,115.609573 199.871307,116.259285 
	C191.277451,159.677658 165.677872,187.189697 122.854073,198.576279 
	C119.585640,199.445343 116.285431,200.194885 113.000000,201.000000 
	C104.979103,201.000000 96.958199,201.000000 88.311005,200.641586 
	C87.036682,200.145508 86.390213,199.999924 85.740402,199.871292 
	C42.314037,191.275253 14.806669,165.667374 3.408348,122.838768 
	C2.623003,119.887871 1.803577,116.946045 1.000000,114.000000 
	C1.000000,105.645767 1.000000,97.291534 1.358417,88.311005 
	C1.854488,87.036797 2.000069,86.390442 2.128666,85.740730 
	C10.722539,42.322361 36.322090,14.810273 79.145927,3.423740 
	C82.414368,2.554689 85.714561,1.805111 89.000000,1.000000 
M129.701340,111.053696 
	C130.129318,109.449905 130.648987,107.864273 130.970642,106.239433 
	C133.387238,94.032249 128.070541,81.835716 117.325851,74.841675 
	C107.124413,68.201248 93.402733,68.295746 83.477272,75.074783 
	C73.011093,82.223137 67.082718,95.052979 70.832245,106.778679 
	C73.341438,114.625542 72.885750,121.524506 70.309212,128.826157 
	C70.073006,129.495529 70.277779,130.320480 70.277779,131.405518 
	C74.159790,130.468445 77.650711,129.401230 81.221184,128.840836 
	C83.705353,128.450928 86.554352,128.051056 88.802597,128.864929 
	C105.511200,134.913574 121.711052,128.204559 129.701340,111.053696 
z"/>
<path fill="currentcolor" opacity="1.000000" stroke="none" 
	d="
M201.000000,88.531342 
	C200.195114,85.715439 199.356949,82.438622 198.590408,79.145142 
	C188.907135,37.540680 156.038589,7.687871 113.166702,1.362062 
	C142.260239,1.000000 171.520477,1.000000 201.000000,1.000000 
	C201.000000,30.020527 201.000000,59.041603 201.000000,88.531342 
z"/>
<path fill="#FDFDFE" opacity="1.000000" stroke="none" 
	d="
M88.531342,1.000000 
	C85.714561,1.805111 82.414368,2.554689 79.145927,3.423740 
	C36.322090,14.810273 10.722539,42.322361 2.128666,85.740730 
	C2.000069,86.390442 1.854488,87.036797 1.358417,87.842361 
	C1.000000,59.072674 1.000000,30.145346 1.000000,1.000000 
	C30.020531,1.000000 59.041607,1.000000 88.531342,1.000000 
z"/>
<path fill="#FDFDFE" opacity="1.000000" stroke="none" 
	d="
M113.468658,201.000000 
	C116.285431,200.194885 119.585640,199.445343 122.854073,198.576279 
	C165.677872,187.189697 191.277451,159.677658 199.871307,116.259285 
	C199.999908,115.609573 200.145508,114.963226 200.641571,114.157654 
	C201.000000,142.927322 201.000000,171.854645 201.000000,201.000000 
	C171.979477,201.000000 142.958389,201.000000 113.468658,201.000000 
z"/>
<path fill="#FDFDFE" opacity="1.000000" stroke="none" 
	d="
M1.000000,114.468658 
	C1.803577,116.946045 2.623003,119.887871 3.408348,122.838768 
	C14.806669,165.667374 42.314037,191.275253 85.740402,199.871292 
	C86.390213,199.999924 87.036682,200.145508 87.842354,200.641586 
	C59.073097,201.000000 30.146193,201.000000 1.000000,201.000000 
	C1.000000,172.312805 1.000000,143.625061 1.000000,114.468658 
z"/>
<path fill="currentcolor" opacity="1.000000" stroke="#242E81" 
	d="
M129.543213,111.407181 
	C121.711052,128.204559 105.511200,134.913574 88.802597,128.864929 
	C86.554352,128.051056 83.705353,128.450928 81.221184,128.840836 
	C77.650711,129.401230 74.159790,130.468445 70.277779,131.405518 
	C70.277779,130.320480 70.073006,129.495529 70.309212,128.826157 
	C72.885750,121.524506 73.341438,114.625542 70.832245,106.778679 
	C67.082718,95.052979 73.011093,82.223137 83.477272,75.074783 
	C93.402733,68.295746 107.124413,68.201248 117.325851,74.841675 
	C128.070541,81.835716 133.387238,94.032249 130.970642,106.239433 
	C130.648987,107.864273 130.129318,109.449905 129.543213,111.407181 
M103.212784,75.804230 
	C84.921997,73.542877 71.575653,91.788322 76.887421,107.460251 
	C78.630264,112.602386 81.212479,117.393074 77.463585,123.423653 
	C81.313492,122.744049 84.091721,121.680367 86.736023,121.946640 
	C89.428207,122.217735 91.917839,124.079857 94.618553,124.757668 
	C108.395027,128.215149 122.345184,119.372177 125.174774,105.529930 
	C128.056351,91.433365 118.554382,78.063721 103.212784,75.804230 
z"/>
<path class='filler' fill="#ffffff" opacity="1.000000" stroke="none" 
	d="
M103.657364,75.841934 
	C118.554382,78.063721 128.056351,91.433365 125.174774,105.529930 
	C122.345184,119.372177 108.395027,128.215149 94.618553,124.757668 
	C91.917839,124.079857 89.428207,122.217735 86.736023,121.946640 
	C84.091721,121.680367 81.313492,122.744049 77.463585,123.423653 
	C81.212479,117.393074 78.630264,112.602386 76.887421,107.460251 
	C71.575653,91.788322 84.921997,73.542877 103.657364,75.841934 
M116.015503,110.218948 
	C117.016045,105.839569 113.019966,105.609573 110.844635,105.144112 
	C108.741539,104.694099 106.216827,106.214523 102.640045,107.215767 
	C101.695152,106.586861 99.244003,105.402657 97.387833,103.604347 
	C95.175461,101.460938 92.397522,99.544205 95.058937,95.257561 
	C96.067619,93.632904 93.931496,89.844803 92.783920,87.238708 
	C92.492058,86.575905 89.909363,86.035774 89.395645,86.519249 
	C87.706665,88.108803 85.976112,90.019699 85.245926,92.145309 
	C84.675385,93.806206 85.084900,96.205307 85.894096,97.870544 
	C89.824570,105.959084 95.926659,111.933830 104.640961,114.557999 
	C108.846153,115.824318 113.300453,115.919205 116.015503,110.218948 
z"/>
<path fill="currentcolor" opacity="1.000000" stroke="none" 
	d="
M115.928070,110.611008 
	C113.300453,115.919205 108.846153,115.824318 104.640961,114.557999 
	C95.926659,111.933830 89.824570,105.959084 85.894096,97.870544 
	C85.084900,96.205307 84.675385,93.806206 85.245926,92.145309 
	C85.976112,90.019699 87.706665,88.108803 89.395645,86.519249 
	C89.909363,86.035774 92.492058,86.575905 92.783920,87.238708 
	C93.931496,89.844803 96.067619,93.632904 95.058937,95.257561 
	C92.397522,99.544205 95.175461,101.460938 97.387833,103.604347 
	C99.244003,105.402657 101.695152,106.586861 102.640045,107.215767 
	C106.216827,106.214523 108.741539,104.694099 110.844635,105.144112 
	C113.019966,105.609573 117.016045,105.839569 115.928070,110.611008 
z"/>
</svg>